<?xml version="1.0" encoding="UTF-8"?>
<svg xmlns="http://www.w3.org/2000/svg" viewBox="0 0 1100 700" width="1100" height="700">
  <defs>
    <linearGradient id="bgGrad" x1="0%" y1="0%" x2="0%" y2="100%">
      <stop offset="0%" style="stop-color:#1a1a2e"/>
      <stop offset="100%" style="stop-color:#16213e"/>
    </linearGradient>
    <linearGradient id="headerGrad" x1="0%" y1="0%" x2="100%" y2="0%">
      <stop offset="0%" style="stop-color:#0f3460"/>
      <stop offset="100%" style="stop-color:#533483"/>
    </linearGradient>
  </defs>
  
  <!-- Background -->
  <rect width="1100" height="700" fill="url(#bgGrad)"/>
  
  <!-- Border -->
  <rect x="10" y="10" width="1080" height="680" fill="none" stroke="#e94560" stroke-width="3" rx="15"/>
  
  <!-- Header -->
  <rect x="20" y="20" width="1060" height="50" fill="url(#headerGrad)" rx="10"/>
  <text x="550" y="52" font-family="Georgia, serif" font-size="28" fill="#ffffff" text-anchor="middle" font-weight="bold">YOUR LINEAGE - Trait Timeline</text>
  
  <!-- Era Columns Area -->
  <rect x="20" y="80" width="870" height="420" fill="#0a0a15" stroke="#3a3a5a" stroke-width="2" rx="10"/>
  
  <!-- Era 0: Cambrian -->
  <rect x="25" y="85" width="70" height="410" fill="#1a237e" fill-opacity="0.3" stroke="#1a237e" rx="5"/>
  <text x="60" y="105" font-family="Arial" font-size="9" fill="#1a237e" text-anchor="middle" font-weight="bold">ERA 0</text>
  <text x="60" y="118" font-family="Arial" font-size="7" fill="#8888ff" text-anchor="middle">Cambrian</text>
  <rect x="30" y="125" width="60" height="40" fill="none" stroke="#3a3a5a" stroke-dasharray="3,3" rx="3"/>
  <rect x="30" y="170" width="60" height="40" fill="none" stroke="#3a3a5a" stroke-dasharray="3,3" rx="3"/>
  <rect x="30" y="215" width="60" height="40" fill="none" stroke="#3a3a5a" stroke-dasharray="3,3" rx="3"/>
  
  <!-- Era 1: Ordovician -->
  <rect x="97" y="85" width="70" height="410" fill="#00695c" fill-opacity="0.3" stroke="#00695c" rx="5"/>
  <text x="132" y="105" font-family="Arial" font-size="9" fill="#00695c" text-anchor="middle" font-weight="bold">ERA 1</text>
  <text x="132" y="118" font-family="Arial" font-size="7" fill="#44aaaa" text-anchor="middle">Ordovician</text>
  <rect x="102" y="125" width="60" height="40" fill="none" stroke="#3a3a5a" stroke-dasharray="3,3" rx="3"/>
  <rect x="102" y="170" width="60" height="40" fill="none" stroke="#3a3a5a" stroke-dasharray="3,3" rx="3"/>
  <rect x="102" y="215" width="60" height="40" fill="none" stroke="#3a3a5a" stroke-dasharray="3,3" rx="3"/>
  
  <!-- Era 2: Silurian -->
  <rect x="169" y="85" width="70" height="410" fill="#2e7d32" fill-opacity="0.3" stroke="#2e7d32" rx="5"/>
  <text x="204" y="105" font-family="Arial" font-size="9" fill="#2e7d32" text-anchor="middle" font-weight="bold">ERA 2</text>
  <text x="204" y="118" font-family="Arial" font-size="7" fill="#66bb66" text-anchor="middle">Silurian</text>
  <rect x="174" y="125" width="60" height="40" fill="none" stroke="#3a3a5a" stroke-dasharray="3,3" rx="3"/>
  <rect x="174" y="170" width="60" height="40" fill="none" stroke="#3a3a5a" stroke-dasharray="3,3" rx="3"/>
  <rect x="174" y="215" width="60" height="40" fill="none" stroke="#3a3a5a" stroke-dasharray="3,3" rx="3"/>
  
  <!-- Era 3: Devonian -->
  <rect x="241" y="85" width="70" height="410" fill="#33691e" fill-opacity="0.3" stroke="#33691e" rx="5"/>
  <text x="276" y="105" font-family="Arial" font-size="9" fill="#33691e" text-anchor="middle" font-weight="bold">ERA 3</text>
  <text x="276" y="118" font-family="Arial" font-size="7" fill="#88aa44" text-anchor="middle">Devonian</text>
  <rect x="246" y="125" width="60" height="40" fill="none" stroke="#3a3a5a" stroke-dasharray="3,3" rx="3"/>
  <rect x="246" y="170" width="60" height="40" fill="none" stroke="#3a3a5a" stroke-dasharray="3,3" rx="3"/>
  <rect x="246" y="215" width="60" height="40" fill="none" stroke="#3a3a5a" stroke-dasharray="3,3" rx="3"/>
  
  <!-- Era 4: Carboniferous -->
  <rect x="313" y="85" width="70" height="410" fill="#1b5e20" fill-opacity="0.3" stroke="#1b5e20" rx="5"/>
  <text x="348" y="105" font-family="Arial" font-size="9" fill="#1b5e20" text-anchor="middle" font-weight="bold">ERA 4</text>
  <text x="348" y="118" font-family="Arial" font-size="6" fill="#44aa44" text-anchor="middle">Carbonif.</text>
  <rect x="318" y="125" width="60" height="40" fill="none" stroke="#3a3a5a" stroke-dasharray="3,3" rx="3"/>
  <rect x="318" y="170" width="60" height="40" fill="none" stroke="#3a3a5a" stroke-dasharray="3,3" rx="3"/>
  <rect x="318" y="215" width="60" height="40" fill="none" stroke="#3a3a5a" stroke-dasharray="3,3" rx="3"/>
  
  <!-- Era 5: Permian -->
  <rect x="385" y="85" width="70" height="410" fill="#4e342e" fill-opacity="0.3" stroke="#4e342e" rx="5"/>
  <text x="420" y="105" font-family="Arial" font-size="9" fill="#4e342e" text-anchor="middle" font-weight="bold">ERA 5</text>
  <text x="420" y="118" font-family="Arial" font-size="7" fill="#aa8866" text-anchor="middle">Permian</text>
  <rect x="390" y="125" width="60" height="40" fill="none" stroke="#3a3a5a" stroke-dasharray="3,3" rx="3"/>
  <rect x="390" y="170" width="60" height="40" fill="none" stroke="#3a3a5a" stroke-dasharray="3,3" rx="3"/>
  <rect x="390" y="215" width="60" height="40" fill="none" stroke="#3a3a5a" stroke-dasharray="3,3" rx="3"/>
  
  <!-- Era 6: Triassic -->
  <rect x="457" y="85" width="70" height="410" fill="#e65100" fill-opacity="0.3" stroke="#e65100" rx="5"/>
  <text x="492" y="105" font-family="Arial" font-size="9" fill="#e65100" text-anchor="middle" font-weight="bold">ERA 6</text>
  <text x="492" y="118" font-family="Arial" font-size="7" fill="#ff8844" text-anchor="middle">Triassic</text>
  <rect x="462" y="125" width="60" height="40" fill="none" stroke="#3a3a5a" stroke-dasharray="3,3" rx="3"/>
  <rect x="462" y="170" width="60" height="40" fill="none" stroke="#3a3a5a" stroke-dasharray="3,3" rx="3"/>
  <rect x="462" y="215" width="60" height="40" fill="none" stroke="#3a3a5a" stroke-dasharray="3,3" rx="3"/>
  
  <!-- Era 7: Jurassic -->
  <rect x="529" y="85" width="70" height="410" fill="#b71c1c" fill-opacity="0.3" stroke="#b71c1c" rx="5"/>
  <text x="564" y="105" font-family="Arial" font-size="9" fill="#b71c1c" text-anchor="middle" font-weight="bold">ERA 7</text>
  <text x="564" y="118" font-family="Arial" font-size="7" fill="#ff4444" text-anchor="middle">Jurassic</text>
  <rect x="534" y="125" width="60" height="40" fill="none" stroke="#3a3a5a" stroke-dasharray="3,3" rx="3"/>
  <rect x="534" y="170" width="60" height="40" fill="none" stroke="#3a3a5a" stroke-dasharray="3,3" rx="3"/>
  <rect x="534" y="215" width="60" height="40" fill="none" stroke="#3a3a5a" stroke-dasharray="3,3" rx="3"/>
  
  <!-- Era 8: Cretaceous -->
  <rect x="601" y="85" width="70" height="410" fill="#4a148c" fill-opacity="0.3" stroke="#4a148c" rx="5"/>
  <text x="636" y="105" font-family="Arial" font-size="9" fill="#4a148c" text-anchor="middle" font-weight="bold">ERA 8</text>
  <text x="636" y="118" font-family="Arial" font-size="6" fill="#aa66ff" text-anchor="middle">Cretaceous</text>
  <rect x="606" y="125" width="60" height="40" fill="none" stroke="#3a3a5a" stroke-dasharray="3,3" rx="3"/>
  <rect x="606" y="170" width="60" height="40" fill="none" stroke="#3a3a5a" stroke-dasharray="3,3" rx="3"/>
  <rect x="606" y="215" width="60" height="40" fill="none" stroke="#3a3a5a" stroke-dasharray="3,3" rx="3"/>
  
  <!-- Era 9: Paleogene -->
  <rect x="673" y="85" width="70" height="410" fill="#ad1457" fill-opacity="0.3" stroke="#ad1457" rx="5"/>
  <text x="708" y="105" font-family="Arial" font-size="9" fill="#ad1457" text-anchor="middle" font-weight="bold">ERA 9</text>
  <text x="708" y="118" font-family="Arial" font-size="7" fill="#ff66aa" text-anchor="middle">Paleogene</text>
  <rect x="678" y="125" width="60" height="40" fill="none" stroke="#3a3a5a" stroke-dasharray="3,3" rx="3"/>
  <rect x="678" y="170" width="60" height="40" fill="none" stroke="#3a3a5a" stroke-dasharray="3,3" rx="3"/>
  <rect x="678" y="215" width="60" height="40" fill="none" stroke="#3a3a5a" stroke-dasharray="3,3" rx="3"/>
  
  <!-- Era 10: Neogene -->
  <rect x="745" y="85" width="70" height="410" fill="#f9a825" fill-opacity="0.3" stroke="#f9a825" rx="5"/>
  <text x="780" y="105" font-family="Arial" font-size="9" fill="#f9a825" text-anchor="middle" font-weight="bold">ERA 10</text>
  <text x="780" y="118" font-family="Arial" font-size="7" fill="#ffcc44" text-anchor="middle">Neogene</text>
  <rect x="750" y="125" width="60" height="40" fill="none" stroke="#3a3a5a" stroke-dasharray="3,3" rx="3"/>
  <rect x="750" y="170" width="60" height="40" fill="none" stroke="#3a3a5a" stroke-dasharray="3,3" rx="3"/>
  <rect x="750" y="215" width="60" height="40" fill="none" stroke="#3a3a5a" stroke-dasharray="3,3" rx="3"/>
  
  <!-- Era 11: Quaternary -->
  <rect x="817" y="85" width="70" height="410" fill="#eceff1" fill-opacity="0.2" stroke="#eceff1" rx="5"/>
  <text x="852" y="105" font-family="Arial" font-size="9" fill="#eceff1" text-anchor="middle" font-weight="bold">ERA 11</text>
  <text x="852" y="118" font-family="Arial" font-size="6" fill="#ffffff" text-anchor="middle">Quaternary</text>
  <rect x="822" y="125" width="60" height="40" fill="none" stroke="#3a3a5a" stroke-dasharray="3,3" rx="3"/>
  <rect x="822" y="170" width="60" height="40" fill="none" stroke="#3a3a5a" stroke-dasharray="3,3" rx="3"/>
  <rect x="822" y="215" width="60" height="40" fill="none" stroke="#3a3a5a" stroke-dasharray="3,3" rx="3"/>
  
  <!-- Additional trait slots row 4-6 for each era (below main slots) -->
  <text x="450" y="280" font-family="Arial" font-size="10" fill="#666" text-anchor="middle">─────── Additional Trait Slots (place cards overlapping if needed) ───────</text>
  
  <!-- Row indicators -->
  <text x="15" y="148" font-family="Arial" font-size="8" fill="#666" transform="rotate(-90, 15, 148)">Slot 1</text>
  <text x="15" y="193" font-family="Arial" font-size="8" fill="#666" transform="rotate(-90, 15, 193)">Slot 2</text>
  <text x="15" y="238" font-family="Arial" font-size="8" fill="#666" transform="rotate(-90, 15, 238)">Slot 3</text>
  
  <!-- Timeline arrow -->
  <line x1="25" y1="480" x2="885" y2="480" stroke="#e94560" stroke-width="2" marker-end="url(#arrowhead)"/>
  <defs>
    <marker id="arrowhead" markerWidth="10" markerHeight="7" refX="9" refY="3.5" orient="auto">
      <polygon points="0 0, 10 3.5, 0 7" fill="#e94560"/>
    </marker>
  </defs>
  <text x="455" y="475" font-family="Arial" font-size="10" fill="#e94560" text-anchor="middle">EVOLUTIONARY TIME →</text>
  
  <!-- Stats Panel -->
  <rect x="900" y="80" width="180" height="420" fill="#0a0a15" stroke="#3a3a5a" stroke-width="2" rx="10"/>
  
  <!-- Markers Section -->
  <text x="990" y="105" font-family="Arial" font-size="12" fill="#e94560" text-anchor="middle" font-weight="bold">CREATURE MARKERS</text>
  <text x="990" y="120" font-family="Arial" font-size="9" fill="#888" text-anchor="middle">(12 total - place on tiles)</text>
  
  <g transform="translate(910, 130)">
    <circle cx="15" cy="12" r="10" fill="#27ae60" stroke="#fff" stroke-width="1"/>
    <circle cx="40" cy="12" r="10" fill="#27ae60" stroke="#fff" stroke-width="1"/>
    <circle cx="65" cy="12" r="10" fill="#27ae60" stroke="#fff" stroke-width="1"/>
    <circle cx="90" cy="12" r="10" fill="#27ae60" stroke="#fff" stroke-width="1"/>
    <circle cx="115" cy="12" r="10" fill="#27ae60" stroke="#fff" stroke-width="1"/>
    <circle cx="140" cy="12" r="10" fill="#27ae60" stroke="#fff" stroke-width="1"/>
    <circle cx="15" cy="37" r="10" fill="#27ae60" stroke="#fff" stroke-width="1"/>
    <circle cx="40" cy="37" r="10" fill="#27ae60" stroke="#fff" stroke-width="1"/>
    <circle cx="65" cy="37" r="10" fill="#27ae60" stroke="#fff" stroke-width="1"/>
    <circle cx="90" cy="37" r="10" fill="#27ae60" stroke="#fff" stroke-width="1"/>
    <circle cx="115" cy="37" r="10" fill="#27ae60" stroke="#fff" stroke-width="1"/>
    <circle cx="140" cy="37" r="10" fill="#27ae60" stroke="#fff" stroke-width="1"/>
  </g>
  
  <!-- Alleles Section -->
  <text x="990" y="210" font-family="Arial" font-size="12" fill="#f1c40f" text-anchor="middle" font-weight="bold">ALLELES</text>
  <rect x="910" y="220" width="160" height="35" fill="#1a1a3a" stroke="#f1c40f" stroke-width="1" rx="5"/>
  <text x="920" y="242" font-family="Arial" font-size="11" fill="#f1c40f">0 1 2 3 4 5 6 7 8 9 10+</text>
  
  <!-- Complexity Total -->
  <text x="990" y="280" font-family="Arial" font-size="12" fill="#9b59b6" text-anchor="middle" font-weight="bold">TOTAL COMPLEXITY</text>
  <rect x="910" y="290" width="160" height="30" fill="#1a1a3a" stroke="#9b59b6" stroke-width="1" rx="5"/>
  <text x="990" y="310" font-family="Arial" font-size="16" fill="#9b59b6" text-anchor="middle">___</text>
  
  <!-- Active Tags Section -->
  <text x="990" y="345" font-family="Arial" font-size="12" fill="#3498db" text-anchor="middle" font-weight="bold">ACTIVE TAGS</text>
  <rect x="910" y="355" width="160" height="60" fill="#1a1a3a" stroke="#3498db" stroke-width="1" rx="5"/>
  <text x="990" y="388" font-family="Arial" font-size="9" fill="#666" text-anchor="middle" font-style="italic">(List all tags from traits)</text>
  
  <!-- Fecundity Bonus -->
  <text x="990" y="435" font-family="Arial" font-size="12" fill="#27ae60" text-anchor="middle" font-weight="bold">FECUNDITY BONUS</text>
  <rect x="910" y="445" width="160" height="25" fill="#1a1a3a" stroke="#27ae60" stroke-width="1" rx="5"/>
  <text x="990" y="462" font-family="Arial" font-size="12" fill="#27ae60" text-anchor="middle">+__ alleles/era</text>
  
  <!-- Quick Reference Panel -->
  <rect x="20" y="510" width="1060" height="170" fill="#0a0a15" stroke="#3a3a5a" stroke-width="2" rx="10"/>
  
  <text x="40" y="535" font-family="Arial" font-size="14" fill="#e94560" font-weight="bold">QUICK REFERENCE</text>
  
  <!-- Left column -->
  <text x="40" y="560" font-family="Arial" font-size="10" fill="#ccc">ALLELE INCOME: 2d6 + Population Tier + Tile Control + Fecundity</text>
  <text x="40" y="578" font-family="Arial" font-size="10" fill="#ccc">POPULATION TIERS: 1-3 markers = +0 | 4-6 = +1 | 7-9 = +2 | 10+ = +3</text>
  <text x="40" y="596" font-family="Arial" font-size="10" fill="#ccc">SOFT PREREQS: 1 met = -1 cost | 2+ met = -2 cost | All met = -3 cost</text>
  <text x="40" y="614" font-family="Arial" font-size="10" fill="#ccc">SCORING: (Markers on tiles) × (Total Complexity) + (3 × Tiles controlled)</text>
  
  <!-- Right column -->
  <text x="560" y="560" font-family="Arial" font-size="10" fill="#ccc">EXTINCTION: SAFE tag = survive | DOOMED tag = lose half markers</text>
  <text x="560" y="578" font-family="Arial" font-size="10" fill="#ccc">NEUTRAL: Roll d6, need 4+ to survive (5+ for Great Dying)</text>
  <text x="560" y="596" font-family="Arial" font-size="10" fill="#ccc">TILE COMPETITION: Most markers + Matching tags wins control</text>
  <text x="560" y="614" font-family="Arial" font-size="10" fill="#ccc">DISPLACEMENT: Need 2+ markers AND 2+ tag advantage</text>
  
  <!-- Event reminder -->
  <rect x="40" y="635" width="300" height="30" fill="#4a0000" stroke="#ff4444" rx="5"/>
  <text x="190" y="655" font-family="Arial" font-size="11" fill="#ff4444" text-anchor="middle">☠ RED BACK = Extinction coming! Prepare!</text>
  
  <rect x="360" y="635" width="300" height="30" fill="#0a2a0a" stroke="#27ae60" rx="5"/>
  <text x="510" y="655" font-family="Arial" font-size="11" fill="#27ae60" text-anchor="middle">✦ GREEN BACK = Positive/Neutral event</text>
</svg>
