<?xml version="1.0" encoding="UTF-8"?>
<svg xmlns="http://www.w3.org/2000/svg" viewBox="0 0 790 1090" width="790" height="1090">
  <rect width="790" height="1090" fill="#ffffff"/>
<g transform="translate(10, 10)">
  <rect width="250" height="350" fill="#1a0a0a" rx="15"/>
  <rect x="5" y="5" width="240" height="340" fill="none" stroke="#27ae60" stroke-width="3" rx="12"/>
  
  <rect x="10" y="10" width="230" height="30" fill="#27ae60" rx="8"/>
  <text x="125" y="30" font-family="Arial" font-size="12" fill="#fff" text-anchor="middle" font-weight="bold">✦ POSITIVE ✦</text>
  
  <rect x="10" y="45" width="230" height="50" fill="#1a0505" stroke="#27ae60" rx="5"/>
  <text x="125" y="75" font-family="Georgia" font-size="14" fill="#fff" text-anchor="middle" font-weight="bold">ADAPTIVE RADIATION</text>
  
  
  <rect x="10" y="100" width="230" height="65" fill="#0a0a15" stroke="#27ae60" rx="5"/>
  <text x="125" y="118" font-family="Arial" font-size="10" fill="#27ae60" text-anchor="middle" font-weight="bold">EFFECT:</text>
  <text x="125" y="136" font-family="Arial" font-size="8" fill="#ccc" text-anchor="middle">All players may evolve one trait at half cost (r</text>
  <text x="125" y="152" font-family="Arial" font-size="7" fill="#888" text-anchor="middle" font-style="italic">Vacant ecological niches allow rapid diversification.</text>
  
  <rect x="10" y="170" width="230" height="65" fill="#0a0505" stroke="#555" rx="5"/>
  
  <rect x="10" y="185" width="230" height="55" fill="#0a0a1a" stroke="#9b59b6" rx="5"/>
  <text x="125" y="200" font-family="Arial" font-size="9" fill="#9b59b6" text-anchor="middle" font-weight="bold">REAL EXAMPLES:</text>
  <text x="20" y="215" font-family="Arial" font-size="7" fill="#bb88dd">• Mammalian radiation (~66 MYA) - Post-K-Pg</text>
  <text x="20" y="227" font-family="Arial" font-size="7" fill="#bb88dd">• Cambrian Explosion (~540 MYA) - Body plan div</text>
  
  <rect x="10" y="305" width="230" height="35" fill="#050505" stroke="#444" rx="5"/>
  <text x="20" y="320" font-family="Arial" font-size="6" fill="#555">After extinctions, survivors radiate into empty niches.</text>
  <text x="20" y="330" font-family="Arial" font-size="6" fill="#555"> Example: mammals after dinosaurs evolved from shrew to</text>
</g>
<g transform="translate(270, 10)">
  <rect width="250" height="350" fill="#1a0a0a" rx="15"/>
  <rect x="5" y="5" width="240" height="340" fill="none" stroke="#27ae60" stroke-width="3" rx="12"/>
  
  <rect x="10" y="10" width="230" height="30" fill="#27ae60" rx="8"/>
  <text x="125" y="30" font-family="Arial" font-size="12" fill="#fff" text-anchor="middle" font-weight="bold">✦ POSITIVE ✦</text>
  
  <rect x="10" y="45" width="230" height="50" fill="#1a0505" stroke="#27ae60" rx="5"/>
  <text x="125" y="75" font-family="Georgia" font-size="14" fill="#fff" text-anchor="middle" font-weight="bold">OZONE SHIELD</text>
  
  
  <rect x="10" y="100" width="230" height="65" fill="#0a0a15" stroke="#27ae60" rx="5"/>
  <text x="125" y="118" font-family="Arial" font-size="10" fill="#27ae60" text-anchor="middle" font-weight="bold">EFFECT:</text>
  <text x="125" y="136" font-family="Arial" font-size="8" fill="#ccc" text-anchor="middle">Players with [Terrestrial] traits gain +2 allele</text>
  <text x="125" y="152" font-family="Arial" font-size="7" fill="#888" text-anchor="middle" font-style="italic">UV protection strengthens. Land becomes safer for colonizati</text>
  
  <rect x="10" y="170" width="230" height="65" fill="#0a0505" stroke="#555" rx="5"/>
  
  <rect x="10" y="185" width="230" height="55" fill="#0a0a1a" stroke="#9b59b6" rx="5"/>
  <text x="125" y="200" font-family="Arial" font-size="9" fill="#9b59b6" text-anchor="middle" font-weight="bold">REAL EXAMPLES:</text>
  <text x="20" y="215" font-family="Arial" font-size="7" fill="#bb88dd">• Silurian (~420 MYA) - First land plants</text>
  <text x="20" y="227" font-family="Arial" font-size="7" fill="#bb88dd">• Devonian (~400 MYA) - First tetrapods emerge</text>
  
  <rect x="10" y="305" width="230" height="35" fill="#050505" stroke="#444" rx="5"/>
  <text x="20" y="320" font-family="Arial" font-size="6" fill="#555">Ozone (O3) absorbs UV-C radiation. Without it, DNA dama</text>
  <text x="20" y="330" font-family="Arial" font-size="6" fill="#555">ge prevents land colonization. Photosynthesis created t</text>
</g>
<g transform="translate(530, 10)">
  <rect width="250" height="350" fill="#1a0a0a" rx="15"/>
  <rect x="5" y="5" width="240" height="340" fill="none" stroke="#27ae60" stroke-width="3" rx="12"/>
  
  <rect x="10" y="10" width="230" height="30" fill="#27ae60" rx="8"/>
  <text x="125" y="30" font-family="Arial" font-size="12" fill="#fff" text-anchor="middle" font-weight="bold">✦ POSITIVE ✦</text>
  
  <rect x="10" y="45" width="230" height="50" fill="#1a0505" stroke="#27ae60" rx="5"/>
  <text x="125" y="75" font-family="Georgia" font-size="14" fill="#fff" text-anchor="middle" font-weight="bold">PREDATOR DECLINE</text>
  
  
  <rect x="10" y="100" width="230" height="65" fill="#0a0a15" stroke="#27ae60" rx="5"/>
  <text x="125" y="118" font-family="Arial" font-size="10" fill="#27ae60" text-anchor="middle" font-weight="bold">EFFECT:</text>
  <text x="125" y="136" font-family="Arial" font-size="8" fill="#ccc" text-anchor="middle">Players without [Predator] tag gain +3 alleles a</text>
  <text x="125" y="152" font-family="Arial" font-size="7" fill="#888" text-anchor="middle" font-style="italic">Top predators reduced in number. Prey populations boom.</text>
  
  <rect x="10" y="170" width="230" height="65" fill="#0a0505" stroke="#555" rx="5"/>
  
  <rect x="10" y="185" width="230" height="55" fill="#0a0a1a" stroke="#9b59b6" rx="5"/>
  <text x="125" y="200" font-family="Arial" font-size="9" fill="#9b59b6" text-anchor="middle" font-weight="bold">REAL EXAMPLES:</text>
  <text x="20" y="215" font-family="Arial" font-size="7" fill="#bb88dd">• Post-K-Pg (~65 MYA) - No large predators for </text>
  <text x="20" y="227" font-family="Arial" font-size="7" fill="#bb88dd">• End-Permian recovery - Predator guilds collap</text>
  
  <rect x="10" y="305" width="230" height="35" fill="#050505" stroke="#444" rx="5"/>
  <text x="20" y="320" font-family="Arial" font-size="6" fill="#555">Trophic cascades occur when apex predators decline. Mes</text>
  <text x="20" y="330" font-family="Arial" font-size="6" fill="#555">opredator release and prey population explosions follow</text>
</g>
<g transform="translate(10, 370)">
  <rect width="250" height="350" fill="#1a0a0a" rx="15"/>
  <rect x="5" y="5" width="240" height="340" fill="none" stroke="#27ae60" stroke-width="3" rx="12"/>
  
  <rect x="10" y="10" width="230" height="30" fill="#27ae60" rx="8"/>
  <text x="125" y="30" font-family="Arial" font-size="12" fill="#fff" text-anchor="middle" font-weight="bold">✦ POSITIVE ✦</text>
  
  <rect x="10" y="45" width="230" height="50" fill="#1a0505" stroke="#27ae60" rx="5"/>
  <text x="125" y="75" font-family="Georgia" font-size="14" fill="#fff" text-anchor="middle" font-weight="bold">MUTUALISM BOOM</text>
  
  
  <rect x="10" y="100" width="230" height="65" fill="#0a0a15" stroke="#27ae60" rx="5"/>
  <text x="125" y="118" font-family="Arial" font-size="10" fill="#27ae60" text-anchor="middle" font-weight="bold">EFFECT:</text>
  <text x="125" y="136" font-family="Arial" font-size="8" fill="#ccc" text-anchor="middle">Players with [Pollinator] or [Social] tags gain </text>
  <text x="125" y="152" font-family="Arial" font-size="7" fill="#888" text-anchor="middle" font-style="italic">Symbiotic relationships flourish. Cooperation provides advan</text>
  
  <rect x="10" y="170" width="230" height="65" fill="#0a0505" stroke="#555" rx="5"/>
  
  <rect x="10" y="185" width="230" height="55" fill="#0a0a1a" stroke="#9b59b6" rx="5"/>
  <text x="125" y="200" font-family="Arial" font-size="9" fill="#9b59b6" text-anchor="middle" font-weight="bold">REAL EXAMPLES:</text>
  <text x="20" y="215" font-family="Arial" font-size="7" fill="#bb88dd">• Angiosperm-insect coevolution (~100 MYA)</text>
  <text x="20" y="227" font-family="Arial" font-size="7" fill="#bb88dd">• Mycorrhizal networks (~450 MYA) - Plants + fu</text>
  
  <rect x="10" y="305" width="230" height="35" fill="#050505" stroke="#444" rx="5"/>
  <text x="20" y="320" font-family="Arial" font-size="6" fill="#555">Coevolution between species creates mutual benefits. Po</text>
  <text x="20" y="330" font-family="Arial" font-size="6" fill="#555">llination, gut microbiomes, and cleaning symbioses enha</text>
</g>
<g transform="translate(270, 370)">
  <rect width="250" height="350" fill="#1a0a0a" rx="15"/>
  <rect x="5" y="5" width="240" height="340" fill="none" stroke="#3498db" stroke-width="3" rx="12"/>
  
  <rect x="10" y="10" width="230" height="30" fill="#3498db" rx="8"/>
  <text x="125" y="30" font-family="Arial" font-size="12" fill="#fff" text-anchor="middle" font-weight="bold">✦ NEUTRAL ✦</text>
  
  <rect x="10" y="45" width="230" height="50" fill="#1a0505" stroke="#3498db" rx="5"/>
  <text x="125" y="75" font-family="Georgia" font-size="14" fill="#fff" text-anchor="middle" font-weight="bold">CONTINENTAL DRIFT</text>
  
  
  <rect x="10" y="100" width="230" height="65" fill="#0a0a15" stroke="#3498db" rx="5"/>
  <text x="125" y="118" font-family="Arial" font-size="10" fill="#3498db" text-anchor="middle" font-weight="bold">EFFECT:</text>
  <text x="125" y="136" font-family="Arial" font-size="8" fill="#ccc" text-anchor="middle">Shuffle 3 random tiles and replace. Players may </text>
  <text x="125" y="152" font-family="Arial" font-size="7" fill="#888" text-anchor="middle" font-style="italic">Landmasses shift position. Populations become isolated or co</text>
  
  <rect x="10" y="170" width="230" height="65" fill="#0a0505" stroke="#555" rx="5"/>
  
  <rect x="10" y="185" width="230" height="55" fill="#0a0a1a" stroke="#9b59b6" rx="5"/>
  <text x="125" y="200" font-family="Arial" font-size="9" fill="#9b59b6" text-anchor="middle" font-weight="bold">REAL EXAMPLES:</text>
  <text x="20" y="215" font-family="Arial" font-size="7" fill="#bb88dd">• Pangaea breakup (~200 MYA) - Created Atlantic</text>
  <text x="20" y="227" font-family="Arial" font-size="7" fill="#bb88dd">• India-Asia collision (~50 MYA) - Himalayas fo</text>
  
  <rect x="10" y="305" width="230" height="35" fill="#050505" stroke="#444" rx="5"/>
  <text x="20" y="320" font-family="Arial" font-size="6" fill="#555">Continental drift at ~2-10 cm/year creates and destroys</text>
  <text x="20" y="330" font-family="Arial" font-size="6" fill="#555"> habitats over millions of years. Isolation drives spec</text>
</g>
<g transform="translate(530, 370)">
  <rect width="250" height="350" fill="#1a0a0a" rx="15"/>
  <rect x="5" y="5" width="240" height="340" fill="none" stroke="#3498db" stroke-width="3" rx="12"/>
  
  <rect x="10" y="10" width="230" height="30" fill="#3498db" rx="8"/>
  <text x="125" y="30" font-family="Arial" font-size="12" fill="#fff" text-anchor="middle" font-weight="bold">✦ NEUTRAL ✦</text>
  
  <rect x="10" y="45" width="230" height="50" fill="#1a0505" stroke="#3498db" rx="5"/>
  <text x="125" y="75" font-family="Georgia" font-size="14" fill="#fff" text-anchor="middle" font-weight="bold">CLIMATE SHIFT</text>
  
  
  <rect x="10" y="100" width="230" height="65" fill="#0a0a15" stroke="#3498db" rx="5"/>
  <text x="125" y="118" font-family="Arial" font-size="10" fill="#3498db" text-anchor="middle" font-weight="bold">EFFECT:</text>
  <text x="125" y="136" font-family="Arial" font-size="8" fill="#ccc" text-anchor="middle">Flip 2 tiles to new biome types. Affected player</text>
  <text x="125" y="152" font-family="Arial" font-size="7" fill="#888" text-anchor="middle" font-style="italic">Global temperature and precipitation patterns change signifi</text>
  
  <rect x="10" y="170" width="230" height="65" fill="#0a0505" stroke="#555" rx="5"/>
  
  <rect x="10" y="185" width="230" height="55" fill="#0a0a1a" stroke="#9b59b6" rx="5"/>
  <text x="125" y="200" font-family="Arial" font-size="9" fill="#9b59b6" text-anchor="middle" font-weight="bold">REAL EXAMPLES:</text>
  <text x="20" y="215" font-family="Arial" font-size="7" fill="#bb88dd">• Eocene-Oligocene cooling (~34 MYA)</text>
  <text x="20" y="227" font-family="Arial" font-size="7" fill="#bb88dd">• Mid-Miocene Climatic Optimum (~15 MYA)</text>
  
  <rect x="10" y="305" width="230" height="35" fill="#050505" stroke="#444" rx="5"/>
  <text x="20" y="320" font-family="Arial" font-size="6" fill="#555">Climate shifts driven by orbital cycles, tectonics, and</text>
  <text x="20" y="330" font-family="Arial" font-size="6" fill="#555"> ocean currents redistribute habitats across latitudes.</text>
</g>
<g transform="translate(10, 730)">
  <rect width="250" height="350" fill="#1a0a0a" rx="15"/>
  <rect x="5" y="5" width="240" height="340" fill="none" stroke="#3498db" stroke-width="3" rx="12"/>
  
  <rect x="10" y="10" width="230" height="30" fill="#3498db" rx="8"/>
  <text x="125" y="30" font-family="Arial" font-size="12" fill="#fff" text-anchor="middle" font-weight="bold">✦ NEUTRAL ✦</text>
  
  <rect x="10" y="45" width="230" height="50" fill="#1a0505" stroke="#3498db" rx="5"/>
  <text x="125" y="75" font-family="Georgia" font-size="14" fill="#fff" text-anchor="middle" font-weight="bold">BIOME TRANSITION</text>
  
  
  <rect x="10" y="100" width="230" height="65" fill="#0a0a15" stroke="#3498db" rx="5"/>
  <text x="125" y="118" font-family="Arial" font-size="10" fill="#3498db" text-anchor="middle" font-weight="bold">EFFECT:</text>
  <text x="125" y="136" font-family="Arial" font-size="8" fill="#ccc" text-anchor="middle">Convert 2 Forest tiles to Grassland OR vice vers</text>
  <text x="125" y="152" font-family="Arial" font-size="7" fill="#888" text-anchor="middle" font-style="italic">One ecosystem type gradually replaces another across large a</text>
  
  <rect x="10" y="170" width="230" height="65" fill="#0a0505" stroke="#555" rx="5"/>
  
  <rect x="10" y="185" width="230" height="55" fill="#0a0a1a" stroke="#9b59b6" rx="5"/>
  <text x="125" y="200" font-family="Arial" font-size="9" fill="#9b59b6" text-anchor="middle" font-weight="bold">REAL EXAMPLES:</text>
  <text x="20" y="215" font-family="Arial" font-size="7" fill="#bb88dd">• Grassland expansion (~15 MYA) - Miocene dryin</text>
  <text x="20" y="227" font-family="Arial" font-size="7" fill="#bb88dd">• Rainforest spread (~55 MYA) - PETM warmth</text>
  
  <rect x="10" y="305" width="230" height="35" fill="#050505" stroke="#444" rx="5"/>
  <text x="20" y="320" font-family="Arial" font-size="6" fill="#555">Biome shifts occur when climate changes or new dominant</text>
  <text x="20" y="330" font-family="Arial" font-size="6" fill="#555"> species evolve. Grasslands replaced forests as CO2 dro</text>
</g>
<g transform="translate(270, 730)">
  <rect width="250" height="350" fill="#1a0a0a" rx="15"/>
  <rect x="5" y="5" width="240" height="340" fill="none" stroke="#3498db" stroke-width="3" rx="12"/>
  
  <rect x="10" y="10" width="230" height="30" fill="#3498db" rx="8"/>
  <text x="125" y="30" font-family="Arial" font-size="12" fill="#fff" text-anchor="middle" font-weight="bold">✦ NEUTRAL ✦</text>
  
  <rect x="10" y="45" width="230" height="50" fill="#1a0505" stroke="#3498db" rx="5"/>
  <text x="125" y="75" font-family="Georgia" font-size="14" fill="#fff" text-anchor="middle" font-weight="bold">ARMS RACE</text>
  
  
  <rect x="10" y="100" width="230" height="65" fill="#0a0a15" stroke="#3498db" rx="5"/>
  <text x="125" y="118" font-family="Arial" font-size="10" fill="#3498db" text-anchor="middle" font-weight="bold">EFFECT:</text>
  <text x="125" y="136" font-family="Arial" font-size="8" fill="#ccc" text-anchor="middle">All [Predator] and [Armored] traits cost -1 alle</text>
  <text x="125" y="152" font-family="Arial" font-size="7" fill="#888" text-anchor="middle" font-style="italic">Predator-prey competition intensifies. Evolutionary pressure</text>
  
  <rect x="10" y="170" width="230" height="65" fill="#0a0505" stroke="#555" rx="5"/>
  
  <rect x="10" y="185" width="230" height="55" fill="#0a0a1a" stroke="#9b59b6" rx="5"/>
  <text x="125" y="200" font-family="Arial" font-size="9" fill="#9b59b6" text-anchor="middle" font-weight="bold">REAL EXAMPLES:</text>
  <text x="20" y="215" font-family="Arial" font-size="7" fill="#bb88dd">• Mesozoic Marine Revolution (~200 MYA)</text>
  <text x="20" y="227" font-family="Arial" font-size="7" fill="#bb88dd">• Cambrian arms race - Shells vs jaws</text>
  
  <rect x="10" y="305" width="230" height="35" fill="#050505" stroke="#444" rx="5"/>
  <text x="20" y="320" font-family="Arial" font-size="6" fill="#555">Red Queen hypothesis: species must constantly evolve to</text>
  <text x="20" y="330" font-family="Arial" font-size="6" fill="#555"> maintain relative fitness. Predators drive prey defens</text>
</g>
<g transform="translate(530, 730)">
  <rect width="250" height="350" fill="#1a0a0a" rx="15"/>
  <rect x="5" y="5" width="240" height="340" fill="none" stroke="#3498db" stroke-width="3" rx="12"/>
  
  <rect x="10" y="10" width="230" height="30" fill="#3498db" rx="8"/>
  <text x="125" y="30" font-family="Arial" font-size="12" fill="#fff" text-anchor="middle" font-weight="bold">✦ NEUTRAL ✦</text>
  
  <rect x="10" y="45" width="230" height="50" fill="#1a0505" stroke="#3498db" rx="5"/>
  <text x="125" y="75" font-family="Georgia" font-size="14" fill="#fff" text-anchor="middle" font-weight="bold">NICHE PARTITIONING</text>
  
  
  <rect x="10" y="100" width="230" height="65" fill="#0a0a15" stroke="#3498db" rx="5"/>
  <text x="125" y="118" font-family="Arial" font-size="10" fill="#3498db" text-anchor="middle" font-weight="bold">EFFECT:</text>
  <text x="125" y="136" font-family="Arial" font-size="8" fill="#ccc" text-anchor="middle">Players with 3+ unique tags gain +2 alleles. Gen</text>
  <text x="125" y="152" font-family="Arial" font-size="7" fill="#888" text-anchor="middle" font-style="italic">Resources divided among competitors. Specialization rewarded</text>
  
  <rect x="10" y="170" width="230" height="65" fill="#0a0505" stroke="#555" rx="5"/>
  
  <rect x="10" y="185" width="230" height="55" fill="#0a0a1a" stroke="#9b59b6" rx="5"/>
  <text x="125" y="200" font-family="Arial" font-size="9" fill="#9b59b6" text-anchor="middle" font-weight="bold">REAL EXAMPLES:</text>
  <text x="20" y="215" font-family="Arial" font-size="7" fill="#bb88dd">• Darwin's finches - Beak specialization</text>
  <text x="20" y="227" font-family="Arial" font-size="7" fill="#bb88dd">• African ungulates - Grazer height partitionin</text>
  
  <rect x="10" y="305" width="230" height="35" fill="#050505" stroke="#444" rx="5"/>
  <text x="20" y="320" font-family="Arial" font-size="6" fill="#555">Competitive exclusion principle: species partition reso</text>
  <text x="20" y="330" font-family="Arial" font-size="6" fill="#555">urces to coexist. Time, space, and diet differentiation</text>
</g></svg>