<?xml version="1.0" encoding="UTF-8"?>
<svg xmlns="http://www.w3.org/2000/svg" viewBox="0 0 790 1090" width="790" height="1090">
  <rect width="790" height="1090" fill="#ffffff"/>
<g transform="translate(10, 10)">
  <rect width="250" height="350" fill="#1a0a0a" rx="15"/>
  <rect x="5" y="5" width="240" height="340" fill="none" stroke="#c0392b" stroke-width="3" rx="12"/>
  
  <rect x="10" y="10" width="230" height="30" fill="#c0392b" rx="8"/>
  <text x="125" y="30" font-family="Arial" font-size="12" fill="#fff" text-anchor="middle" font-weight="bold">★ EXTINCTION ★</text>
  
  <rect x="10" y="45" width="230" height="50" fill="#1a0505" stroke="#c0392b" rx="5"/>
  <text x="125" y="75" font-family="Georgia" font-size="14" fill="#fff" text-anchor="middle" font-weight="bold">ICE AGE</text>
  
  
  <rect x="10" y="100" width="230" height="50" fill="#0a1a0a" stroke="#27ae60" stroke-width="2" rx="5"/>
  <text x="125" y="115" font-family="Arial" font-size="9" fill="#27ae60" text-anchor="middle" font-weight="bold">SAFE (survive)</text>
  <text x="125" y="132" font-family="Arial" font-size="7" fill="#27ae60" text-anchor="middle">[Freshwater] [Deep-Sea] [Warm-Blooded] [Burrowing]</text>
  
  <rect x="10" y="155" width="230" height="50" fill="#1a0a0a" stroke="#c0392b" stroke-width="2" rx="5"/>
  <text x="125" y="170" font-family="Arial" font-size="9" fill="#c0392b" text-anchor="middle" font-weight="bold">DOOMED (lose half)</text>
  <text x="125" y="187" font-family="Arial" font-size="7" fill="#c0392b" text-anchor="middle">[Tropical] [Shallow-Marine] [Cold-Vulnerable]</text>
  
  <rect x="10" y="210" width="230" height="25" fill="#1a1a0a" stroke="#f1c40f" rx="5"/>
  <text x="125" y="227" font-family="Arial" font-size="9" fill="#f1c40f" text-anchor="middle" font-weight="bold">NEUTRAL: Roll d6, need 4+</text>
  
  <rect x="10" y="245" width="230" height="55" fill="#0a0a1a" stroke="#9b59b6" rx="5"/>
  <text x="125" y="260" font-family="Arial" font-size="9" fill="#9b59b6" text-anchor="middle" font-weight="bold">REAL EXAMPLES:</text>
  <text x="20" y="275" font-family="Arial" font-size="7" fill="#bb88dd">• End-Ordovician (~445 MYA) - Gondwana glaciati</text>
  <text x="20" y="287" font-family="Arial" font-size="7" fill="#bb88dd">• Pleistocene Ice Ages (~2.6 MYA - 11,700 ya) -</text>
  
  <rect x="10" y="305" width="230" height="35" fill="#050505" stroke="#444" rx="5"/>
  <text x="20" y="320" font-family="Arial" font-size="6" fill="#555">Milankovitch cycles alter Earth's tilt and orbit over 1</text>
  <text x="20" y="330" font-family="Arial" font-size="6" fill="#555">00,000-year periods. When ice sheets grow, they reflect</text>
</g>
<g transform="translate(270, 10)">
  <rect width="250" height="350" fill="#1a0a0a" rx="15"/>
  <rect x="5" y="5" width="240" height="340" fill="none" stroke="#c0392b" stroke-width="3" rx="12"/>
  
  <rect x="10" y="10" width="230" height="30" fill="#c0392b" rx="8"/>
  <text x="125" y="30" font-family="Arial" font-size="12" fill="#fff" text-anchor="middle" font-weight="bold">★ EXTINCTION ★</text>
  
  <rect x="10" y="45" width="230" height="50" fill="#1a0505" stroke="#c0392b" rx="5"/>
  <text x="125" y="75" font-family="Georgia" font-size="14" fill="#fff" text-anchor="middle" font-weight="bold">VOLCANIC WINTER</text>
  
  
  <rect x="10" y="100" width="230" height="50" fill="#0a1a0a" stroke="#27ae60" stroke-width="2" rx="5"/>
  <text x="125" y="115" font-family="Arial" font-size="9" fill="#27ae60" text-anchor="middle" font-weight="bold">SAFE (survive)</text>
  <text x="125" y="132" font-family="Arial" font-size="7" fill="#27ae60" text-anchor="middle">[Burrowing] [Small] [Deep-Sea] [Detritivore]</text>
  
  <rect x="10" y="155" width="230" height="50" fill="#1a0a0a" stroke="#c0392b" stroke-width="2" rx="5"/>
  <text x="125" y="170" font-family="Arial" font-size="9" fill="#c0392b" text-anchor="middle" font-weight="bold">DOOMED (lose half)</text>
  <text x="125" y="187" font-family="Arial" font-size="7" fill="#c0392b" text-anchor="middle">[Large] [Photosynthesis-Dependent] [Tropical]</text>
  
  <rect x="10" y="210" width="230" height="25" fill="#1a1a0a" stroke="#f1c40f" rx="5"/>
  <text x="125" y="227" font-family="Arial" font-size="9" fill="#f1c40f" text-anchor="middle" font-weight="bold">NEUTRAL: Roll d6, need 4+</text>
  
  <rect x="10" y="245" width="230" height="55" fill="#0a0a1a" stroke="#9b59b6" rx="5"/>
  <text x="125" y="260" font-family="Arial" font-size="9" fill="#9b59b6" text-anchor="middle" font-weight="bold">REAL EXAMPLES:</text>
  <text x="20" y="275" font-family="Arial" font-size="7" fill="#bb88dd">• Siberian Traps (~252 MYA) - The Great Dying: </text>
  <text x="20" y="287" font-family="Arial" font-size="7" fill="#bb88dd">• Deccan Traps (~66 MYA) - Million-year eruptio</text>
  
  <rect x="10" y="305" width="230" height="35" fill="#050505" stroke="#444" rx="5"/>
  <text x="20" y="320" font-family="Arial" font-size="6" fill="#555">Large Igneous Provinces erupt for hundreds of thousands</text>
  <text x="20" y="330" font-family="Arial" font-size="6" fill="#555"> of years. Sulfuric acid rain devastates vegetation. Th</text>
</g>
<g transform="translate(530, 10)">
  <rect width="250" height="350" fill="#1a0a0a" rx="15"/>
  <rect x="5" y="5" width="240" height="340" fill="none" stroke="#c0392b" stroke-width="3" rx="12"/>
  
  <rect x="10" y="10" width="230" height="30" fill="#c0392b" rx="8"/>
  <text x="125" y="30" font-family="Arial" font-size="12" fill="#fff" text-anchor="middle" font-weight="bold">★ EXTINCTION ★</text>
  
  <rect x="10" y="45" width="230" height="50" fill="#1a0505" stroke="#c0392b" rx="5"/>
  <text x="125" y="75" font-family="Georgia" font-size="14" fill="#fff" text-anchor="middle" font-weight="bold">ASTEROID IMPACT</text>
  
  
  <rect x="10" y="100" width="230" height="50" fill="#0a1a0a" stroke="#27ae60" stroke-width="2" rx="5"/>
  <text x="125" y="115" font-family="Arial" font-size="9" fill="#27ae60" text-anchor="middle" font-weight="bold">SAFE (survive)</text>
  <text x="125" y="132" font-family="Arial" font-size="7" fill="#27ae60" text-anchor="middle">[Burrowing] [Small] [Aquatic] [Nocturnal]</text>
  
  <rect x="10" y="155" width="230" height="50" fill="#1a0a0a" stroke="#c0392b" stroke-width="2" rx="5"/>
  <text x="125" y="170" font-family="Arial" font-size="9" fill="#c0392b" text-anchor="middle" font-weight="bold">DOOMED (lose half)</text>
  <text x="125" y="187" font-family="Arial" font-size="7" fill="#c0392b" text-anchor="middle">[Large] [Aerial] [Photosynthesis-Dependent]</text>
  
  <rect x="10" y="210" width="230" height="25" fill="#1a1a0a" stroke="#f1c40f" rx="5"/>
  <text x="125" y="227" font-family="Arial" font-size="9" fill="#f1c40f" text-anchor="middle" font-weight="bold">NEUTRAL: Roll d6, need 4+</text>
  
  <rect x="10" y="245" width="230" height="55" fill="#0a0a1a" stroke="#9b59b6" rx="5"/>
  <text x="125" y="260" font-family="Arial" font-size="9" fill="#9b59b6" text-anchor="middle" font-weight="bold">REAL EXAMPLES:</text>
  <text x="20" y="275" font-family="Arial" font-size="7" fill="#bb88dd">• Chicxulub Impact (~66 MYA) - 180km crater in </text>
  <text x="20" y="287" font-family="Arial" font-size="7" fill="#bb88dd">• Sudbury Impact (~1.85 BYA) - 250km crater, on</text>
  
  <rect x="10" y="305" width="230" height="35" fill="#050505" stroke="#444" rx="5"/>
  <text x="20" y="320" font-family="Arial" font-size="6" fill="#555">A 10km impactor releases energy equivalent to billions </text>
  <text x="20" y="330" font-family="Arial" font-size="6" fill="#555">of nuclear bombs. Ejecta reentering the atmosphere heat</text>
</g>
<g transform="translate(10, 370)">
  <rect width="250" height="350" fill="#1a0a0a" rx="15"/>
  <rect x="5" y="5" width="240" height="340" fill="none" stroke="#c0392b" stroke-width="3" rx="12"/>
  
  <rect x="10" y="10" width="230" height="30" fill="#c0392b" rx="8"/>
  <text x="125" y="30" font-family="Arial" font-size="12" fill="#fff" text-anchor="middle" font-weight="bold">★ EXTINCTION ★</text>
  
  <rect x="10" y="45" width="230" height="50" fill="#1a0505" stroke="#c0392b" rx="5"/>
  <text x="125" y="75" font-family="Georgia" font-size="14" fill="#fff" text-anchor="middle" font-weight="bold">OCEAN ANOXIA</text>
  
  
  <rect x="10" y="100" width="230" height="50" fill="#0a1a0a" stroke="#27ae60" stroke-width="2" rx="5"/>
  <text x="125" y="115" font-family="Arial" font-size="9" fill="#27ae60" text-anchor="middle" font-weight="bold">SAFE (survive)</text>
  <text x="125" y="132" font-family="Arial" font-size="7" fill="#27ae60" text-anchor="middle">[Terrestrial] [Freshwater] [Deep-Sea] [Air-Breathing]</text>
  
  <rect x="10" y="155" width="230" height="50" fill="#1a0a0a" stroke="#c0392b" stroke-width="2" rx="5"/>
  <text x="125" y="170" font-family="Arial" font-size="9" fill="#c0392b" text-anchor="middle" font-weight="bold">DOOMED (lose half)</text>
  <text x="125" y="187" font-family="Arial" font-size="7" fill="#c0392b" text-anchor="middle">[Marine-Only] [Reef-Dependent] [Shallow-Marine]</text>
  
  <rect x="10" y="210" width="230" height="25" fill="#1a1a0a" stroke="#f1c40f" rx="5"/>
  <text x="125" y="227" font-family="Arial" font-size="9" fill="#f1c40f" text-anchor="middle" font-weight="bold">NEUTRAL: Roll d6, need 4+</text>
  
  <rect x="10" y="245" width="230" height="55" fill="#0a0a1a" stroke="#9b59b6" rx="5"/>
  <text x="125" y="260" font-family="Arial" font-size="9" fill="#9b59b6" text-anchor="middle" font-weight="bold">REAL EXAMPLES:</text>
  <text x="20" y="275" font-family="Arial" font-size="7" fill="#bb88dd">• Late Devonian Kellwasser Event (~372 MYA) - E</text>
  <text x="20" y="287" font-family="Arial" font-size="7" fill="#bb88dd">• Toarcian OAE (~183 MYA) - Black shales record</text>
  
  <rect x="10" y="305" width="230" height="35" fill="#050505" stroke="#444" rx="5"/>
  <text x="20" y="320" font-family="Arial" font-size="6" fill="#555">Oceanic Anoxic Events occur when circulation stalls. Su</text>
  <text x="20" y="330" font-family="Arial" font-size="6" fill="#555">lfate-reducing bacteria thrive in oxygen-depleted water</text>
</g>
<g transform="translate(270, 370)">
  <rect width="250" height="350" fill="#1a0a0a" rx="15"/>
  <rect x="5" y="5" width="240" height="340" fill="none" stroke="#c0392b" stroke-width="3" rx="12"/>
  
  <rect x="10" y="10" width="230" height="30" fill="#c0392b" rx="8"/>
  <text x="125" y="30" font-family="Arial" font-size="12" fill="#fff" text-anchor="middle" font-weight="bold">★ EXTINCTION ★</text>
  
  <rect x="10" y="45" width="230" height="50" fill="#1a0505" stroke="#c0392b" rx="5"/>
  <text x="125" y="75" font-family="Georgia" font-size="14" fill="#fff" text-anchor="middle" font-weight="bold">GLOBAL WARMING</text>
  
  
  <rect x="10" y="100" width="230" height="50" fill="#0a1a0a" stroke="#27ae60" stroke-width="2" rx="5"/>
  <text x="125" y="115" font-family="Arial" font-size="9" fill="#27ae60" text-anchor="middle" font-weight="bold">SAFE (survive)</text>
  <text x="125" y="132" font-family="Arial" font-size="7" fill="#27ae60" text-anchor="middle">[Small] [Burrowing] [Aquatic] [Cold-Resistant]</text>
  
  <rect x="10" y="155" width="230" height="50" fill="#1a0a0a" stroke="#c0392b" stroke-width="2" rx="5"/>
  <text x="125" y="170" font-family="Arial" font-size="9" fill="#c0392b" text-anchor="middle" font-weight="bold">DOOMED (lose half)</text>
  <text x="125" y="187" font-family="Arial" font-size="7" fill="#c0392b" text-anchor="middle">[Large] [Tropical] [Reef-Dependent] [Specialized]</text>
  
  <rect x="10" y="210" width="230" height="25" fill="#1a1a0a" stroke="#f1c40f" rx="5"/>
  <text x="125" y="227" font-family="Arial" font-size="9" fill="#f1c40f" text-anchor="middle" font-weight="bold">NEUTRAL: Roll d6, need 4+</text>
  
  <rect x="10" y="245" width="230" height="55" fill="#0a0a1a" stroke="#9b59b6" rx="5"/>
  <text x="125" y="260" font-family="Arial" font-size="9" fill="#9b59b6" text-anchor="middle" font-weight="bold">REAL EXAMPLES:</text>
  <text x="20" y="275" font-family="Arial" font-size="7" fill="#bb88dd">• Paleocene-Eocene Thermal Maximum (~56 MYA) - </text>
  <text x="20" y="287" font-family="Arial" font-size="7" fill="#bb88dd">• End-Permian hothouse (~252 MYA) - Equatorial </text>
  
  <rect x="10" y="305" width="230" height="35" fill="#050505" stroke="#444" rx="5"/>
  <text x="20" y="320" font-family="Arial" font-size="6" fill="#555">Every 1°C warming shifts climate zones ~150km poleward.</text>
  <text x="20" y="330" font-family="Arial" font-size="6" fill="#555"> Ocean pH dropping 0.1 units represents a 30% increase </text>
</g>
<g transform="translate(530, 370)">
  <rect width="250" height="350" fill="#1a0a0a" rx="15"/>
  <rect x="5" y="5" width="240" height="340" fill="none" stroke="#c0392b" stroke-width="3" rx="12"/>
  
  <rect x="10" y="10" width="230" height="30" fill="#c0392b" rx="8"/>
  <text x="125" y="30" font-family="Arial" font-size="12" fill="#fff" text-anchor="middle" font-weight="bold">★ EXTINCTION ★</text>
  
  <rect x="10" y="45" width="230" height="50" fill="#1a0505" stroke="#c0392b" rx="5"/>
  <text x="125" y="75" font-family="Georgia" font-size="14" fill="#fff" text-anchor="middle" font-weight="bold">SEA LEVEL COLLAPSE</text>
  
  
  <rect x="10" y="100" width="230" height="50" fill="#0a1a0a" stroke="#27ae60" stroke-width="2" rx="5"/>
  <text x="125" y="115" font-family="Arial" font-size="9" fill="#27ae60" text-anchor="middle" font-weight="bold">SAFE (survive)</text>
  <text x="125" y="132" font-family="Arial" font-size="7" fill="#27ae60" text-anchor="middle">[Terrestrial] [Deep-Sea] [Mobile] [Freshwater]</text>
  
  <rect x="10" y="155" width="230" height="50" fill="#1a0a0a" stroke="#c0392b" stroke-width="2" rx="5"/>
  <text x="125" y="170" font-family="Arial" font-size="9" fill="#c0392b" text-anchor="middle" font-weight="bold">DOOMED (lose half)</text>
  <text x="125" y="187" font-family="Arial" font-size="7" fill="#c0392b" text-anchor="middle">[Shallow-Marine] [Reef-Dependent] [Sessile]</text>
  
  <rect x="10" y="210" width="230" height="25" fill="#1a1a0a" stroke="#f1c40f" rx="5"/>
  <text x="125" y="227" font-family="Arial" font-size="9" fill="#f1c40f" text-anchor="middle" font-weight="bold">NEUTRAL: Roll d6, need 4+</text>
  
  <rect x="10" y="245" width="230" height="55" fill="#0a0a1a" stroke="#9b59b6" rx="5"/>
  <text x="125" y="260" font-family="Arial" font-size="9" fill="#9b59b6" text-anchor="middle" font-weight="bold">REAL EXAMPLES:</text>
  <text x="20" y="275" font-family="Arial" font-size="7" fill="#bb88dd">• End-Ordovician regression (~445 MYA) - Glacia</text>
  <text x="20" y="287" font-family="Arial" font-size="7" fill="#bb88dd">• End-Permian (~252 MYA) - Pangaea assembly des</text>
  
  <rect x="10" y="305" width="230" height="35" fill="#050505" stroke="#444" rx="5"/>
  <text x="20" y="320" font-family="Arial" font-size="6" fill="#555">Marine regression can drop sea levels 50-100+ meters. C</text>
  <text x="20" y="330" font-family="Arial" font-size="6" fill="#555">auses include glaciation, tectonic uplift, or supercont</text>
</g>
<g transform="translate(10, 730)">
  <rect width="250" height="350" fill="#1a0a0a" rx="15"/>
  <rect x="5" y="5" width="240" height="340" fill="none" stroke="#c0392b" stroke-width="3" rx="12"/>
  
  <rect x="10" y="10" width="230" height="30" fill="#c0392b" rx="8"/>
  <text x="125" y="30" font-family="Arial" font-size="12" fill="#fff" text-anchor="middle" font-weight="bold">★ EXTINCTION ★</text>
  
  <rect x="10" y="45" width="230" height="50" fill="#1a0505" stroke="#c0392b" rx="5"/>
  <text x="125" y="75" font-family="Georgia" font-size="14" fill="#fff" text-anchor="middle" font-weight="bold">REEF COLLAPSE</text>
  
  
  <rect x="10" y="100" width="230" height="50" fill="#0a1a0a" stroke="#27ae60" stroke-width="2" rx="5"/>
  <text x="125" y="115" font-family="Arial" font-size="9" fill="#27ae60" text-anchor="middle" font-weight="bold">SAFE (survive)</text>
  <text x="125" y="132" font-family="Arial" font-size="7" fill="#27ae60" text-anchor="middle">[Terrestrial] [Deep-Sea] [Freshwater] [Pelagic]</text>
  
  <rect x="10" y="155" width="230" height="50" fill="#1a0a0a" stroke="#c0392b" stroke-width="2" rx="5"/>
  <text x="125" y="170" font-family="Arial" font-size="9" fill="#c0392b" text-anchor="middle" font-weight="bold">DOOMED (lose half)</text>
  <text x="125" y="187" font-family="Arial" font-size="7" fill="#c0392b" text-anchor="middle">[Reef-Dependent] [Shallow-Marine] [Tropical]</text>
  
  <rect x="10" y="210" width="230" height="25" fill="#1a1a0a" stroke="#f1c40f" rx="5"/>
  <text x="125" y="227" font-family="Arial" font-size="9" fill="#f1c40f" text-anchor="middle" font-weight="bold">NEUTRAL: Roll d6, need 4+</text>
  
  <rect x="10" y="245" width="230" height="55" fill="#0a0a1a" stroke="#9b59b6" rx="5"/>
  <text x="125" y="260" font-family="Arial" font-size="9" fill="#9b59b6" text-anchor="middle" font-weight="bold">REAL EXAMPLES:</text>
  <text x="20" y="275" font-family="Arial" font-size="7" fill="#bb88dd">• Late Devonian (~372 MYA) - Stromatoporoid-cor</text>
  <text x="20" y="287" font-family="Arial" font-size="7" fill="#bb88dd">• End-Triassic (~201 MYA) - First scleractinian</text>
  
  <rect x="10" y="305" width="230" height="35" fill="#050505" stroke="#444" rx="5"/>
  <text x="20" y="320" font-family="Arial" font-size="6" fill="#555">Reef-building organisms require narrow temperature, pH,</text>
  <text x="20" y="330" font-family="Arial" font-size="6" fill="#555"> and light conditions. After collapse events, 'reef gap</text>
</g>
<g transform="translate(270, 730)">
  <rect width="250" height="350" fill="#1a0a0a" rx="15"/>
  <rect x="5" y="5" width="240" height="340" fill="none" stroke="#c0392b" stroke-width="3" rx="12"/>
  
  <rect x="10" y="10" width="230" height="30" fill="#c0392b" rx="8"/>
  <text x="125" y="30" font-family="Arial" font-size="12" fill="#fff" text-anchor="middle" font-weight="bold">★ EXTINCTION ★</text>
  
  <rect x="10" y="45" width="230" height="50" fill="#1a0505" stroke="#c0392b" rx="5"/>
  <text x="125" y="75" font-family="Georgia" font-size="14" fill="#fff" text-anchor="middle" font-weight="bold">GAMMA RAY BURST</text>
  
  
  <rect x="10" y="100" width="230" height="50" fill="#0a1a0a" stroke="#27ae60" stroke-width="2" rx="5"/>
  <text x="125" y="115" font-family="Arial" font-size="9" fill="#27ae60" text-anchor="middle" font-weight="bold">SAFE (survive)</text>
  <text x="125" y="132" font-family="Arial" font-size="7" fill="#27ae60" text-anchor="middle">[Aquatic] [Burrowing] [Nocturnal] [Deep-Sea]</text>
  
  <rect x="10" y="155" width="230" height="50" fill="#1a0a0a" stroke="#c0392b" stroke-width="2" rx="5"/>
  <text x="125" y="170" font-family="Arial" font-size="9" fill="#c0392b" text-anchor="middle" font-weight="bold">DOOMED (lose half)</text>
  <text x="125" y="187" font-family="Arial" font-size="7" fill="#c0392b" text-anchor="middle">[Terrestrial] [Aerial] [Shallow-Marine]</text>
  
  <rect x="10" y="210" width="230" height="25" fill="#1a1a0a" stroke="#f1c40f" rx="5"/>
  <text x="125" y="227" font-family="Arial" font-size="9" fill="#f1c40f" text-anchor="middle" font-weight="bold">NEUTRAL: Roll d6, need 4+</text>
  
  <rect x="10" y="245" width="230" height="55" fill="#0a0a1a" stroke="#9b59b6" rx="5"/>
  <text x="125" y="260" font-family="Arial" font-size="9" fill="#9b59b6" text-anchor="middle" font-weight="bold">REAL EXAMPLES:</text>
  <text x="20" y="275" font-family="Arial" font-size="7" fill="#bb88dd">• End-Ordovician (~445 MYA) - Hypothesized GRB </text>
  <text x="20" y="287" font-family="Arial" font-size="7" fill="#bb88dd">• WR 104 (present) - Wolf-Rayet star 8,000 ly a</text>
  
  <rect x="10" y="305" width="230" height="35" fill="#050505" stroke="#444" rx="5"/>
  <text x="20" y="320" font-family="Arial" font-size="6" fill="#555">A GRB within 6,000 light-years could halve Earth's ozon</text>
  <text x="20" y="330" font-family="Arial" font-size="6" fill="#555">e. Nitrogen oxides from atmospheric ionization would cr</text>
</g>
<g transform="translate(530, 730)">
  <rect width="250" height="350" fill="#1a0a0a" rx="15"/>
  <rect x="5" y="5" width="240" height="340" fill="none" stroke="#c0392b" stroke-width="3" rx="12"/>
  
  <rect x="10" y="10" width="230" height="30" fill="#c0392b" rx="8"/>
  <text x="125" y="30" font-family="Arial" font-size="12" fill="#fff" text-anchor="middle" font-weight="bold">★ EXTINCTION ★</text>
  
  <rect x="10" y="45" width="230" height="50" fill="#1a0505" stroke="#c0392b" rx="5"/>
  <text x="125" y="75" font-family="Georgia" font-size="14" fill="#fff" text-anchor="middle" font-weight="bold">METHANE PULSE</text>
  
  
  <rect x="10" y="100" width="230" height="50" fill="#0a1a0a" stroke="#27ae60" stroke-width="2" rx="5"/>
  <text x="125" y="115" font-family="Arial" font-size="9" fill="#27ae60" text-anchor="middle" font-weight="bold">SAFE (survive)</text>
  <text x="125" y="132" font-family="Arial" font-size="7" fill="#27ae60" text-anchor="middle">[Deep-Sea] [Freshwater] [Cold-Resistant] [Burrowing]</text>
  
  <rect x="10" y="155" width="230" height="50" fill="#1a0a0a" stroke="#c0392b" stroke-width="2" rx="5"/>
  <text x="125" y="170" font-family="Arial" font-size="9" fill="#c0392b" text-anchor="middle" font-weight="bold">DOOMED (lose half)</text>
  <text x="125" y="187" font-family="Arial" font-size="7" fill="#c0392b" text-anchor="middle">[Reef-Dependent] [Marine-Only] [Tropical]</text>
  
  <rect x="10" y="210" width="230" height="25" fill="#1a1a0a" stroke="#f1c40f" rx="5"/>
  <text x="125" y="227" font-family="Arial" font-size="9" fill="#f1c40f" text-anchor="middle" font-weight="bold">NEUTRAL: Roll d6, need 4+</text>
  
  <rect x="10" y="245" width="230" height="55" fill="#0a0a1a" stroke="#9b59b6" rx="5"/>
  <text x="125" y="260" font-family="Arial" font-size="9" fill="#9b59b6" text-anchor="middle" font-weight="bold">REAL EXAMPLES:</text>
  <text x="20" y="275" font-family="Arial" font-size="7" fill="#bb88dd">• PETM (~56 MYA) - Carbon isotope spike suggest</text>
  <text x="20" y="287" font-family="Arial" font-size="7" fill="#bb88dd">• End-Permian (~252 MYA) - Siberian volcanism m</text>
  
  <rect x="10" y="305" width="230" height="35" fill="#050505" stroke="#444" rx="5"/>
  <text x="20" y="320" font-family="Arial" font-size="6" fill="#555">Methane clathrates store 10,000+ gigatons of carbon. Wa</text>
  <text x="20" y="330" font-family="Arial" font-size="6" fill="#555">rming oceans can trigger runaway release. Methane oxidi</text>
</g></svg>