<?xml version="1.0" encoding="UTF-8"?>
<svg xmlns="http://www.w3.org/2000/svg" viewBox="0 0 790 1090" width="790" height="1090">
  <rect width="790" height="1090" fill="#ffffff"/>
<g transform="translate(10, 10)">
  <defs>
    <linearGradient id="cardBg" x1="0%" y1="0%" x2="0%" y2="100%">
      <stop offset="0%" style="stop-color:#1a1a2e"/>
      <stop offset="100%" style="stop-color:#16213e"/>
    </linearGradient>
    <linearGradient id="eraGrad" x1="0%" y1="0%" x2="100%" y2="0%">
      <stop offset="0%" style="stop-color:#1b5e20"/>
      <stop offset="100%" style="stop-color:#1b5e20"/>
    </linearGradient>
  </defs>
  
  <rect width="250" height="350" fill="url(#cardBg)" rx="15"/>
  <rect x="5" y="5" width="240" height="340" fill="none" stroke="#e94560" stroke-width="2" rx="12"/>
  
  <rect x="10" y="10" width="230" height="35" fill="url(#eraGrad)" rx="8"/>
  <text x="125" y="28" font-family="Arial" font-size="11" fill="#fff" text-anchor="middle" font-weight="bold">ERA WINDOW: 4-11</text>
  <text x="125" y="40" font-family="Arial" font-size="8" fill="#ccc" text-anchor="middle">(Carboniferous to Quaternary)</text>
  
  <rect x="10" y="50" width="230" height="40" fill="#0f3460" rx="5"/>
  <text x="125" y="76" font-family="Georgia" font-size="16" fill="#fff" text-anchor="middle" font-weight="bold">K-STRATEGY REPRODUCTION</text>
  
  <rect x="10" y="95" width="110" height="50" fill="#0a0a15" stroke="#3a3a5a" rx="5"/>
  <text x="65" y="112" font-family="Arial" font-size="10" fill="#f1c40f" text-anchor="middle" font-weight="bold">COST</text>
  <text x="65" y="135" font-family="Arial" font-size="24" fill="#f1c40f" text-anchor="middle" font-weight="bold">2</text>
  
  <rect x="130" y="95" width="110" height="50" fill="#0a0a15" stroke="#3a3a5a" rx="5"/>
  <text x="185" y="112" font-family="Arial" font-size="10" fill="#e94560" text-anchor="middle" font-weight="bold">PREREQS</text>
  <text font-family="Arial" font-size="8" text-anchor="middle"><tspan x="185" dy="12" fill="#888">Parental Care ┅</tspan></text>
  
  <rect x="10" y="150" width="230" height="35" fill="#0a0a15" stroke="#3a3a5a" rx="5"/>
  <text x="70" y="170" font-family="Arial" font-size="10" fill="#9b59b6" text-anchor="middle">COMPLEXITY +2</text>
  <text x="185" y="170" font-family="Arial" font-size="8" fill="#3498db" text-anchor="middle">[Slow-Reproduction] [Protected-Offspring]</text>
  
  <rect x="10" y="190" width="230" height="70" fill="#0a0a15" stroke="#27ae60" rx="5"/>
  <text x="20" y="206" font-family="Arial" font-size="10" fill="#27ae60" font-weight="bold">GRANTS:</text>
  <text x="20" y="220" font-family="Arial" font-size="8" fill="#ccc">ALLELES: -1/era</text>
  <text x="20" y="232" font-family="Arial" font-size="8" fill="#ccc">SURVIVAL: Markers cannot be displaced</text>
  <text x="20" y="244" font-family="Arial" font-size="8" fill="#ccc">Stable population.</text>
  
  <rect x="10" y="265" width="230" height="45" fill="#0a0a15" stroke="#888" rx="5"/>
  <text x="20" y="280" font-family="Arial" font-size="8" fill="#888" font-style="italic">SCIENCE:</text>
  <text x="20" y="292" font-family="Arial" font-size="7" fill="#666">Few offspring, high parental investment - thrives in st</text>
  <text x="20" y="302" font-family="Arial" font-size="7" fill="#666">able environments</text>
  
  <rect x="10" y="315" width="230" height="25" fill="#0f3460" rx="5"/>
  <text x="125" y="332" font-family="Arial" font-size="10" fill="#888" text-anchor="middle">[Clade: Various]</text>
</g>
<g transform="translate(270, 10)">
  <defs>
    <linearGradient id="cardBg" x1="0%" y1="0%" x2="0%" y2="100%">
      <stop offset="0%" style="stop-color:#1a1a2e"/>
      <stop offset="100%" style="stop-color:#16213e"/>
    </linearGradient>
    <linearGradient id="eraGrad" x1="0%" y1="0%" x2="100%" y2="0%">
      <stop offset="0%" style="stop-color:#1b5e20"/>
      <stop offset="100%" style="stop-color:#1b5e20"/>
    </linearGradient>
  </defs>
  
  <rect width="250" height="350" fill="url(#cardBg)" rx="15"/>
  <rect x="5" y="5" width="240" height="340" fill="none" stroke="#e94560" stroke-width="2" rx="12"/>
  
  <rect x="10" y="10" width="230" height="35" fill="url(#eraGrad)" rx="8"/>
  <text x="125" y="28" font-family="Arial" font-size="11" fill="#fff" text-anchor="middle" font-weight="bold">ERA WINDOW: 4-11</text>
  <text x="125" y="40" font-family="Arial" font-size="8" fill="#ccc" text-anchor="middle">(Carboniferous to Quaternary)</text>
  
  <rect x="10" y="50" width="230" height="40" fill="#0f3460" rx="5"/>
  <text x="125" y="76" font-family="Georgia" font-size="16" fill="#fff" text-anchor="middle" font-weight="bold">PARENTAL CARE</text>
  
  <rect x="10" y="95" width="110" height="50" fill="#0a0a15" stroke="#3a3a5a" rx="5"/>
  <text x="65" y="112" font-family="Arial" font-size="10" fill="#f1c40f" text-anchor="middle" font-weight="bold">COST</text>
  <text x="65" y="135" font-family="Arial" font-size="24" fill="#f1c40f" text-anchor="middle" font-weight="bold">2</text>
  
  <rect x="130" y="95" width="110" height="50" fill="#0a0a15" stroke="#3a3a5a" rx="5"/>
  <text x="185" y="112" font-family="Arial" font-size="10" fill="#e94560" text-anchor="middle" font-weight="bold">PREREQS</text>
  <text font-family="Arial" font-size="8" text-anchor="middle"><tspan x="185" dy="12" fill="#888">K-Strategy Reproduction ┅</tspan><tspan x="185" dy="12" fill="#888">Amniotic Egg ┅</tspan></text>
  
  <rect x="10" y="150" width="230" height="35" fill="#0a0a15" stroke="#3a3a5a" rx="5"/>
  <text x="70" y="170" font-family="Arial" font-size="10" fill="#9b59b6" text-anchor="middle">COMPLEXITY +2</text>
  <text x="185" y="170" font-family="Arial" font-size="8" fill="#3498db" text-anchor="middle">[Protected-Offspring]</text>
  
  <rect x="10" y="190" width="230" height="70" fill="#0a0a15" stroke="#27ae60" rx="5"/>
  <text x="20" y="206" font-family="Arial" font-size="10" fill="#27ae60" font-weight="bold">GRANTS:</text>
  <text x="20" y="220" font-family="Arial" font-size="8" fill="#ccc">SURVIVAL: Markers protected from displacement</text>
  <text x="20" y="232" font-family="Arial" font-size="8" fill="#ccc">ALLELES: -1/era (investment cost).</text>
  <text x="20" y="244" font-family="Arial" font-size="8" fill="#ccc"></text>
  
  <rect x="10" y="265" width="230" height="45" fill="#0a0a15" stroke="#888" rx="5"/>
  <text x="20" y="280" font-family="Arial" font-size="8" fill="#888" font-style="italic">SCIENCE:</text>
  <text x="20" y="292" font-family="Arial" font-size="7" fill="#666">Parental care increases offspring survival at cost of p</text>
  <text x="20" y="302" font-family="Arial" font-size="7" fill="#666">arent resources</text>
  
  <rect x="10" y="315" width="230" height="25" fill="#0f3460" rx="5"/>
  <text x="125" y="332" font-family="Arial" font-size="10" fill="#888" text-anchor="middle">[Clade: Various]</text>
</g></svg>