<?xml version="1.0" encoding="UTF-8"?>
<svg xmlns="http://www.w3.org/2000/svg" viewBox="0 0 790 1090" width="790" height="1090">
  <rect width="790" height="1090" fill="#ffffff"/>
<g transform="translate(10, 10)">
  <defs>
    <linearGradient id="cardBg" x1="0%" y1="0%" x2="0%" y2="100%">
      <stop offset="0%" style="stop-color:#1a1a2e"/>
      <stop offset="100%" style="stop-color:#16213e"/>
    </linearGradient>
    <linearGradient id="eraGrad" x1="0%" y1="0%" x2="100%" y2="0%">
      <stop offset="0%" style="stop-color:#F4B8D0"/>
      <stop offset="100%" style="stop-color:#F4B8D0"/>
    </linearGradient>
  </defs>
  
  <rect width="250" height="350" fill="url(#cardBg)" rx="15"/>
  <rect x="5" y="5" width="240" height="340" fill="none" stroke="#e94560" stroke-width="2" rx="12"/>
  
  <rect x="10" y="10" width="230" height="30" fill="url(#eraGrad)" rx="8"/>
  <text x="125" y="25" font-family="Arial" font-size="10" fill="#2d2d2d" text-anchor="middle" font-weight="bold">ERA 0-11 (Cam-Qua)</text>
  <text x="30" y="35" font-family="Arial" font-size="8" fill="#f1c40f" font-weight="bold">COST: 1</text>
  <text x="220" y="35" font-family="Arial" font-size="8" fill="#9b59b6" text-anchor="end">+1 CPX</text>
  
  <rect x="10" y="44" width="230" height="32" fill="#0f3460" rx="5"/>
  <text x="125" y="66" font-family="Georgia" font-size="14" fill="#fff" text-anchor="middle" font-weight="bold">BILATERAL SYMMETRY</text>
  
  <rect x="10" y="80" width="110" height="48" fill="#0a0a15" stroke="#e94560" rx="5"/>
  <text x="65" y="92" font-family="Arial" font-size="8" fill="#e94560" text-anchor="middle" font-weight="bold">REQUIRES</text>
  <text font-family="Arial" font-size="7" text-anchor="middle"><tspan x="65" dy="10" fill="#555">—</tspan></text>
  
  <rect x="130" y="80" width="110" height="48" fill="#0a0a15" stroke="#27ae60" rx="5"/>
  <text x="185" y="92" font-family="Arial" font-size="8" fill="#27ae60" text-anchor="middle" font-weight="bold">UNLOCKS (13)</text>
  <text font-family="Arial" font-size="7" text-anchor="middle"><tspan x="185" dy="10" fill="#27ae60">Segmentation ▶</tspan><tspan x="185" dy="10" fill="#27ae60">Protective … ▶</tspan><tspan x="185" dy="10" fill="#27ae60">Gills ▶</tspan></text>
  
  <rect x="10" y="132" width="230" height="22" fill="#0a0a15" stroke="#3a3a5a" rx="5"/>
  <text x="125" y="147" font-family="Arial" font-size="8" fill="#3498db" text-anchor="middle">[Bilateria]</text>
  
  <rect x="10" y="158" width="230" height="70" fill="#0a0a15" stroke="#27ae60" rx="5"/>
  <text x="20" y="173" font-family="Arial" font-size="9" fill="#27ae60" font-weight="bold">GRANTS:</text>
  <text x="20" y="186" font-family="Arial" font-size="8" fill="#ccc">FOUNDATION: Required for most traits</text>
  <text x="20" y="198" font-family="Arial" font-size="8" fill="#ccc">Enables directed movement.</text>
  <text x="20" y="210" font-family="Arial" font-size="8" fill="#ccc"></text>
  
  <rect x="10" y="232" width="230" height="55" fill="#0a0a15" stroke="#888" rx="5"/>
  <text x="20" y="246" font-family="Arial" font-size="8" fill="#888" font-style="italic">SCIENCE:</text>
  <text x="20" y="258" font-family="Arial" font-size="7" fill="#666">Bilateral symmetry emerged ~555 MYA, enabling directed </text>
  <text x="20" y="268" font-family="Arial" font-size="7" fill="#666">movement and cephalizatio...</text>
  
  <rect x="10" y="291" width="230" height="20" fill="#0f3460" rx="5"/>
  <text x="125" y="305" font-family="Arial" font-size="9" fill="#888" text-anchor="middle">[Bilateria]</text>
  
  <rect x="10" y="315" width="230" height="25" fill="#0a0a15" stroke="#444" rx="5"/>
  <text x="20" y="330" font-family="Arial" font-size="7" fill="#555">◀ Hard req  ◁ Soft req (cost-1)</text>
  <text x="230" y="330" font-family="Arial" font-size="7" fill="#555" text-anchor="end">▶ Enables</text>
</g>
<g transform="translate(270, 10)">
  <defs>
    <linearGradient id="cardBg" x1="0%" y1="0%" x2="0%" y2="100%">
      <stop offset="0%" style="stop-color:#1a1a2e"/>
      <stop offset="100%" style="stop-color:#16213e"/>
    </linearGradient>
    <linearGradient id="eraGrad" x1="0%" y1="0%" x2="100%" y2="0%">
      <stop offset="0%" style="stop-color:#F4B8D0"/>
      <stop offset="100%" style="stop-color:#F4B8D0"/>
    </linearGradient>
  </defs>
  
  <rect width="250" height="350" fill="url(#cardBg)" rx="15"/>
  <rect x="5" y="5" width="240" height="340" fill="none" stroke="#e94560" stroke-width="2" rx="12"/>
  
  <rect x="10" y="10" width="230" height="30" fill="url(#eraGrad)" rx="8"/>
  <text x="125" y="25" font-family="Arial" font-size="10" fill="#2d2d2d" text-anchor="middle" font-weight="bold">ERA 0-11 (Cam-Qua)</text>
  <text x="30" y="35" font-family="Arial" font-size="8" fill="#f1c40f" font-weight="bold">COST: 2</text>
  <text x="220" y="35" font-family="Arial" font-size="8" fill="#9b59b6" text-anchor="end">+2 CPX</text>
  
  <rect x="10" y="44" width="230" height="32" fill="#0f3460" rx="5"/>
  <text x="125" y="66" font-family="Georgia" font-size="14" fill="#fff" text-anchor="middle" font-weight="bold">SEGMENTATION</text>
  
  <rect x="10" y="80" width="110" height="48" fill="#0a0a15" stroke="#e94560" rx="5"/>
  <text x="65" y="92" font-family="Arial" font-size="8" fill="#e94560" text-anchor="middle" font-weight="bold">REQUIRES (1)</text>
  <text font-family="Arial" font-size="7" text-anchor="middle"><tspan x="65" dy="10" fill="#e94560">Bilateral S… ◀</tspan></text>
  
  <rect x="130" y="80" width="110" height="48" fill="#0a0a15" stroke="#27ae60" rx="5"/>
  <text x="185" y="92" font-family="Arial" font-size="8" fill="#27ae60" text-anchor="middle" font-weight="bold">UNLOCKS (3)</text>
  <text font-family="Arial" font-size="7" text-anchor="middle"><tspan x="185" dy="10" fill="#27ae60">Exoskeleton ▶</tspan><tspan x="185" dy="10" fill="#27ae60">Six Legs ▶</tspan><tspan x="185" dy="10" fill="#27ae60">Detritivore ▶</tspan></text>
  
  <rect x="10" y="132" width="230" height="22" fill="#0a0a15" stroke="#3a3a5a" rx="5"/>
  <text x="125" y="147" font-family="Arial" font-size="8" fill="#3498db" text-anchor="middle">[Segmented]</text>
  
  <rect x="10" y="158" width="230" height="70" fill="#0a0a15" stroke="#27ae60" rx="5"/>
  <text x="20" y="173" font-family="Arial" font-size="9" fill="#27ae60" font-weight="bold">GRANTS:</text>
  <text x="20" y="186" font-family="Arial" font-size="8" fill="#ccc">SURVIVAL: Lose 1 fewer marker during extin...</text>
  <text x="20" y="198" font-family="Arial" font-size="8" fill="#ccc"></text>
  <text x="20" y="210" font-family="Arial" font-size="8" fill="#ccc"></text>
  
  <rect x="10" y="232" width="230" height="55" fill="#0a0a15" stroke="#888" rx="5"/>
  <text x="20" y="246" font-family="Arial" font-size="8" fill="#888" font-style="italic">SCIENCE:</text>
  <text x="20" y="258" font-family="Arial" font-size="7" fill="#666">Segmentation allows specialization of body regions (tag</text>
  <text x="20" y="268" font-family="Arial" font-size="7" fill="#666">mosis) and evolutionary f...</text>
  
  <rect x="10" y="291" width="230" height="20" fill="#0f3460" rx="5"/>
  <text x="125" y="305" font-family="Arial" font-size="9" fill="#888" text-anchor="middle">[Bilateria]</text>
  
  <rect x="10" y="315" width="230" height="25" fill="#0a0a15" stroke="#444" rx="5"/>
  <text x="20" y="330" font-family="Arial" font-size="7" fill="#555">◀ Hard req  ◁ Soft req (cost-1)</text>
  <text x="230" y="330" font-family="Arial" font-size="7" fill="#555" text-anchor="end">▶ Enables</text>
</g>
<g transform="translate(530, 10)">
  <defs>
    <linearGradient id="cardBg" x1="0%" y1="0%" x2="0%" y2="100%">
      <stop offset="0%" style="stop-color:#1a1a2e"/>
      <stop offset="100%" style="stop-color:#16213e"/>
    </linearGradient>
    <linearGradient id="eraGrad" x1="0%" y1="0%" x2="100%" y2="0%">
      <stop offset="0%" style="stop-color:#F4B8D0"/>
      <stop offset="100%" style="stop-color:#F4B8D0"/>
    </linearGradient>
  </defs>
  
  <rect width="250" height="350" fill="url(#cardBg)" rx="15"/>
  <rect x="5" y="5" width="240" height="340" fill="none" stroke="#e94560" stroke-width="2" rx="12"/>
  
  <rect x="10" y="10" width="230" height="30" fill="url(#eraGrad)" rx="8"/>
  <text x="125" y="25" font-family="Arial" font-size="10" fill="#2d2d2d" text-anchor="middle" font-weight="bold">ERA 0-11 (Cam-Qua)</text>
  <text x="30" y="35" font-family="Arial" font-size="8" fill="#f1c40f" font-weight="bold">COST: 3</text>
  <text x="220" y="35" font-family="Arial" font-size="8" fill="#9b59b6" text-anchor="end">+2 CPX</text>
  
  <rect x="10" y="44" width="230" height="32" fill="#0f3460" rx="5"/>
  <text x="125" y="66" font-family="Georgia" font-size="14" fill="#fff" text-anchor="middle" font-weight="bold">EXOSKELETON</text>
  
  <rect x="10" y="80" width="110" height="48" fill="#0a0a15" stroke="#e94560" rx="5"/>
  <text x="65" y="92" font-family="Arial" font-size="8" fill="#e94560" text-anchor="middle" font-weight="bold">REQUIRES (1)</text>
  <text font-family="Arial" font-size="7" text-anchor="middle"><tspan x="65" dy="10" fill="#e94560">Segmentation ◀</tspan></text>
  
  <rect x="130" y="80" width="110" height="48" fill="#0a0a15" stroke="#27ae60" rx="5"/>
  <text x="185" y="92" font-family="Arial" font-size="8" fill="#27ae60" text-anchor="middle" font-weight="bold">UNLOCKS (6)</text>
  <text font-family="Arial" font-size="7" text-anchor="middle"><tspan x="185" dy="10" fill="#27ae60">Compound Ey… ▶</tspan><tspan x="185" dy="10" fill="#27ae60">Trilobite E… ▶</tspan><tspan x="185" dy="10" fill="#27ae60">Insect Flig… ▶</tspan></text>
  
  <rect x="10" y="132" width="230" height="22" fill="#0a0a15" stroke="#3a3a5a" rx="5"/>
  <text x="125" y="147" font-family="Arial" font-size="8" fill="#3498db" text-anchor="middle">[Armored] [Arthropod]</text>
  
  <rect x="10" y="158" width="230" height="70" fill="#0a0a15" stroke="#27ae60" rx="5"/>
  <text x="20" y="173" font-family="Arial" font-size="9" fill="#27ae60" font-weight="bold">GRANTS:</text>
  <text x="20" y="186" font-family="Arial" font-size="8" fill="#ccc">COMPETITION: +1 vs non-armored on any tile</text>
  <text x="20" y="198" font-family="Arial" font-size="8" fill="#ccc">SURVIVAL: Protected from predation.</text>
  <text x="20" y="210" font-family="Arial" font-size="8" fill="#ccc"></text>
  
  <rect x="10" y="232" width="230" height="55" fill="#0a0a15" stroke="#888" rx="5"/>
  <text x="20" y="246" font-family="Arial" font-size="8" fill="#888" font-style="italic">SCIENCE:</text>
  <text x="20" y="258" font-family="Arial" font-size="7" fill="#666">Chitin exoskeletons provide protection but require molt</text>
  <text x="20" y="268" font-family="Arial" font-size="7" fill="#666">ing for growth</text>
  
  <rect x="10" y="291" width="230" height="20" fill="#0f3460" rx="5"/>
  <text x="125" y="305" font-family="Arial" font-size="9" fill="#888" text-anchor="middle">[Arthropoda]</text>
  
  <rect x="10" y="315" width="230" height="25" fill="#0a0a15" stroke="#444" rx="5"/>
  <text x="20" y="330" font-family="Arial" font-size="7" fill="#555">◀ Hard req  ◁ Soft req (cost-1)</text>
  <text x="230" y="330" font-family="Arial" font-size="7" fill="#555" text-anchor="end">▶ Enables</text>
</g>
<g transform="translate(10, 370)">
  <defs>
    <linearGradient id="cardBg" x1="0%" y1="0%" x2="0%" y2="100%">
      <stop offset="0%" style="stop-color:#1a1a2e"/>
      <stop offset="100%" style="stop-color:#16213e"/>
    </linearGradient>
    <linearGradient id="eraGrad" x1="0%" y1="0%" x2="100%" y2="0%">
      <stop offset="0%" style="stop-color:#F4B8D0"/>
      <stop offset="100%" style="stop-color:#F4B8D0"/>
    </linearGradient>
  </defs>
  
  <rect width="250" height="350" fill="url(#cardBg)" rx="15"/>
  <rect x="5" y="5" width="240" height="340" fill="none" stroke="#e94560" stroke-width="2" rx="12"/>
  
  <rect x="10" y="10" width="230" height="30" fill="url(#eraGrad)" rx="8"/>
  <text x="125" y="25" font-family="Arial" font-size="10" fill="#2d2d2d" text-anchor="middle" font-weight="bold">ERA 0-11 (Cam-Qua)</text>
  <text x="30" y="35" font-family="Arial" font-size="8" fill="#f1c40f" font-weight="bold">COST: 2</text>
  <text x="220" y="35" font-family="Arial" font-size="8" fill="#9b59b6" text-anchor="end">+2 CPX</text>
  
  <rect x="10" y="44" width="230" height="32" fill="#0f3460" rx="5"/>
  <text x="125" y="66" font-family="Georgia" font-size="14" fill="#fff" text-anchor="middle" font-weight="bold">COMPOUND EYES</text>
  
  <rect x="10" y="80" width="110" height="48" fill="#0a0a15" stroke="#e94560" rx="5"/>
  <text x="65" y="92" font-family="Arial" font-size="8" fill="#e94560" text-anchor="middle" font-weight="bold">REQUIRES (1)</text>
  <text font-family="Arial" font-size="7" text-anchor="middle"><tspan x="65" dy="10" fill="#e94560">Exoskeleton ◀</tspan></text>
  
  <rect x="130" y="80" width="110" height="48" fill="#0a0a15" stroke="#27ae60" rx="5"/>
  <text x="185" y="92" font-family="Arial" font-size="8" fill="#27ae60" text-anchor="middle" font-weight="bold">UNLOCKS (2)</text>
  <text font-family="Arial" font-size="7" text-anchor="middle"><tspan x="185" dy="10" fill="#27ae60">Insect Flig… ▶</tspan><tspan x="185" dy="10" fill="#27ae60">Pollination… ▶</tspan></text>
  
  <rect x="10" y="132" width="230" height="22" fill="#0a0a15" stroke="#3a3a5a" rx="5"/>
  <text x="125" y="147" font-family="Arial" font-size="8" fill="#3498db" text-anchor="middle">[Vision] [Arthropod]</text>
  
  <rect x="10" y="158" width="230" height="70" fill="#0a0a15" stroke="#27ae60" rx="5"/>
  <text x="20" y="173" font-family="Arial" font-size="9" fill="#27ae60" font-weight="bold">GRANTS:</text>
  <text x="20" y="186" font-family="Arial" font-size="8" fill="#ccc">COMPETITION: +1 on tiles with predators (d...</text>
  <text x="20" y="198" font-family="Arial" font-size="8" fill="#ccc"></text>
  <text x="20" y="210" font-family="Arial" font-size="8" fill="#ccc"></text>
  
  <rect x="10" y="232" width="230" height="55" fill="#0a0a15" stroke="#888" rx="5"/>
  <text x="20" y="246" font-family="Arial" font-size="8" fill="#888" font-style="italic">SCIENCE:</text>
  <text x="20" y="258" font-family="Arial" font-size="7" fill="#666">Compound eyes have thousands of ommatidia, excellent fo</text>
  <text x="20" y="268" font-family="Arial" font-size="7" fill="#666">r detecting movement</text>
  
  <rect x="10" y="291" width="230" height="20" fill="#0f3460" rx="5"/>
  <text x="125" y="305" font-family="Arial" font-size="9" fill="#888" text-anchor="middle">[Arthropoda]</text>
  
  <rect x="10" y="315" width="230" height="25" fill="#0a0a15" stroke="#444" rx="5"/>
  <text x="20" y="330" font-family="Arial" font-size="7" fill="#555">◀ Hard req  ◁ Soft req (cost-1)</text>
  <text x="230" y="330" font-family="Arial" font-size="7" fill="#555" text-anchor="end">▶ Enables</text>
</g>
<g transform="translate(270, 370)">
  <defs>
    <linearGradient id="cardBg" x1="0%" y1="0%" x2="0%" y2="100%">
      <stop offset="0%" style="stop-color:#1a1a2e"/>
      <stop offset="100%" style="stop-color:#16213e"/>
    </linearGradient>
    <linearGradient id="eraGrad" x1="0%" y1="0%" x2="100%" y2="0%">
      <stop offset="0%" style="stop-color:#F4B8D0"/>
      <stop offset="100%" style="stop-color:#F4B8D0"/>
    </linearGradient>
  </defs>
  
  <rect width="250" height="350" fill="url(#cardBg)" rx="15"/>
  <rect x="5" y="5" width="240" height="340" fill="none" stroke="#e94560" stroke-width="2" rx="12"/>
  
  <rect x="10" y="10" width="230" height="30" fill="url(#eraGrad)" rx="8"/>
  <text x="125" y="25" font-family="Arial" font-size="10" fill="#2d2d2d" text-anchor="middle" font-weight="bold">ERA 0-5 (Cam-Per)</text>
  <text x="30" y="35" font-family="Arial" font-size="8" fill="#f1c40f" font-weight="bold">COST: 2</text>
  <text x="220" y="35" font-family="Arial" font-size="8" fill="#9b59b6" text-anchor="end">+3 CPX</text>
  
  <rect x="10" y="44" width="230" height="32" fill="#0f3460" rx="5"/>
  <text x="125" y="66" font-family="Georgia" font-size="14" fill="#fff" text-anchor="middle" font-weight="bold">TRILOBITE EYES</text>
  
  <rect x="10" y="80" width="110" height="48" fill="#0a0a15" stroke="#e94560" rx="5"/>
  <text x="65" y="92" font-family="Arial" font-size="8" fill="#e94560" text-anchor="middle" font-weight="bold">REQUIRES (1)</text>
  <text font-family="Arial" font-size="7" text-anchor="middle"><tspan x="65" dy="10" fill="#e94560">Exoskeleton ◀</tspan></text>
  
  <rect x="130" y="80" width="110" height="48" fill="#0a0a15" stroke="#27ae60" rx="5"/>
  <text x="185" y="92" font-family="Arial" font-size="8" fill="#27ae60" text-anchor="middle" font-weight="bold">UNLOCKS</text>
  <text font-family="Arial" font-size="7" text-anchor="middle"><tspan x="185" dy="10" fill="#555">—</tspan></text>
  
  <rect x="10" y="132" width="230" height="22" fill="#0a0a15" stroke="#3a3a5a" rx="5"/>
  <text x="125" y="147" font-family="Arial" font-size="8" fill="#3498db" text-anchor="middle">[Vision] [Trilobite]</text>
  
  <rect x="10" y="158" width="230" height="70" fill="#0a0a15" stroke="#27ae60" rx="5"/>
  <text x="20" y="173" font-family="Arial" font-size="9" fill="#27ae60" font-weight="bold">GRANTS:</text>
  <text x="20" y="186" font-family="Arial" font-size="8" fill="#ccc">TILES: +1 on Shallow Marine</text>
  <text x="20" y="198" font-family="Arial" font-size="8" fill="#ccc">COMPETITION: +2 vs blind organisms.</text>
  <text x="20" y="210" font-family="Arial" font-size="8" fill="#ccc"></text>
  
  <rect x="10" y="232" width="230" height="55" fill="#0a0a15" stroke="#888" rx="5"/>
  <text x="20" y="246" font-family="Arial" font-size="8" fill="#888" font-style="italic">SCIENCE:</text>
  <text x="20" y="258" font-family="Arial" font-size="7" fill="#666">Trilobite eyes were made of calcite crystal - the only </text>
  <text x="20" y="268" font-family="Arial" font-size="7" fill="#666">known mineral-based lense...</text>
  
  <rect x="10" y="291" width="230" height="20" fill="#0f3460" rx="5"/>
  <text x="125" y="305" font-family="Arial" font-size="9" fill="#888" text-anchor="middle">[Trilobita]</text>
  
  <rect x="10" y="315" width="230" height="25" fill="#0a0a15" stroke="#444" rx="5"/>
  <text x="20" y="330" font-family="Arial" font-size="7" fill="#555">◀ Hard req  ◁ Soft req (cost-1)</text>
  <text x="230" y="330" font-family="Arial" font-size="7" fill="#555" text-anchor="end">▶ Enables</text>
</g>
<g transform="translate(530, 370)">
  <defs>
    <linearGradient id="cardBg" x1="0%" y1="0%" x2="0%" y2="100%">
      <stop offset="0%" style="stop-color:#1a1a2e"/>
      <stop offset="100%" style="stop-color:#16213e"/>
    </linearGradient>
    <linearGradient id="eraGrad" x1="0%" y1="0%" x2="100%" y2="0%">
      <stop offset="0%" style="stop-color:#F4B8D0"/>
      <stop offset="100%" style="stop-color:#F4B8D0"/>
    </linearGradient>
  </defs>
  
  <rect width="250" height="350" fill="url(#cardBg)" rx="15"/>
  <rect x="5" y="5" width="240" height="340" fill="none" stroke="#e94560" stroke-width="2" rx="12"/>
  
  <rect x="10" y="10" width="230" height="30" fill="url(#eraGrad)" rx="8"/>
  <text x="125" y="25" font-family="Arial" font-size="10" fill="#2d2d2d" text-anchor="middle" font-weight="bold">ERA 0-11 (Cam-Qua)</text>
  <text x="30" y="35" font-family="Arial" font-size="8" fill="#f1c40f" font-weight="bold">COST: 2</text>
  <text x="220" y="35" font-family="Arial" font-size="8" fill="#9b59b6" text-anchor="end">+2 CPX</text>
  
  <rect x="10" y="44" width="230" height="32" fill="#0f3460" rx="5"/>
  <text x="125" y="66" font-family="Georgia" font-size="14" fill="#fff" text-anchor="middle" font-weight="bold">PROTECTIVE SHELL</text>
  
  <rect x="10" y="80" width="110" height="48" fill="#0a0a15" stroke="#e94560" rx="5"/>
  <text x="65" y="92" font-family="Arial" font-size="8" fill="#e94560" text-anchor="middle" font-weight="bold">REQUIRES (1)</text>
  <text font-family="Arial" font-size="7" text-anchor="middle"><tspan x="65" dy="10" fill="#e94560">Bilateral S… ◀</tspan></text>
  
  <rect x="130" y="80" width="110" height="48" fill="#0a0a15" stroke="#27ae60" rx="5"/>
  <text x="185" y="92" font-family="Arial" font-size="8" fill="#27ae60" text-anchor="middle" font-weight="bold">UNLOCKS</text>
  <text font-family="Arial" font-size="7" text-anchor="middle"><tspan x="185" dy="10" fill="#555">—</tspan></text>
  
  <rect x="10" y="132" width="230" height="22" fill="#0a0a15" stroke="#3a3a5a" rx="5"/>
  <text x="125" y="147" font-family="Arial" font-size="8" fill="#3498db" text-anchor="middle">[Armored] [Shelled]</text>
  
  <rect x="10" y="158" width="230" height="70" fill="#0a0a15" stroke="#27ae60" rx="5"/>
  <text x="20" y="173" font-family="Arial" font-size="9" fill="#27ae60" font-weight="bold">GRANTS:</text>
  <text x="20" y="186" font-family="Arial" font-size="8" fill="#ccc">COMPETITION: +1 vs predators</text>
  <text x="20" y="198" font-family="Arial" font-size="8" fill="#ccc">Cannot be displaced by organisms without [...</text>
  <text x="20" y="210" font-family="Arial" font-size="8" fill="#ccc"></text>
  
  <rect x="10" y="232" width="230" height="55" fill="#0a0a15" stroke="#888" rx="5"/>
  <text x="20" y="246" font-family="Arial" font-size="8" fill="#888" font-style="italic">SCIENCE:</text>
  <text x="20" y="258" font-family="Arial" font-size="7" fill="#666">Calcium carbonate shells first appeared in the Cambrian</text>
  <text x="20" y="268" font-family="Arial" font-size="7" fill="#666">, driving the 'arms race'...</text>
  
  <rect x="10" y="291" width="230" height="20" fill="#0f3460" rx="5"/>
  <text x="125" y="305" font-family="Arial" font-size="9" fill="#888" text-anchor="middle">[Mollusca]</text>
  
  <rect x="10" y="315" width="230" height="25" fill="#0a0a15" stroke="#444" rx="5"/>
  <text x="20" y="330" font-family="Arial" font-size="7" fill="#555">◀ Hard req  ◁ Soft req (cost-1)</text>
  <text x="230" y="330" font-family="Arial" font-size="7" fill="#555" text-anchor="end">▶ Enables</text>
</g>
<g transform="translate(10, 730)">
  <defs>
    <linearGradient id="cardBg" x1="0%" y1="0%" x2="0%" y2="100%">
      <stop offset="0%" style="stop-color:#1a1a2e"/>
      <stop offset="100%" style="stop-color:#16213e"/>
    </linearGradient>
    <linearGradient id="eraGrad" x1="0%" y1="0%" x2="100%" y2="0%">
      <stop offset="0%" style="stop-color:#F4B8D0"/>
      <stop offset="100%" style="stop-color:#F4B8D0"/>
    </linearGradient>
  </defs>
  
  <rect width="250" height="350" fill="url(#cardBg)" rx="15"/>
  <rect x="5" y="5" width="240" height="340" fill="none" stroke="#e94560" stroke-width="2" rx="12"/>
  
  <rect x="10" y="10" width="230" height="30" fill="url(#eraGrad)" rx="8"/>
  <text x="125" y="25" font-family="Arial" font-size="10" fill="#2d2d2d" text-anchor="middle" font-weight="bold">ERA 0-11 (Cam-Qua)</text>
  <text x="30" y="35" font-family="Arial" font-size="8" fill="#f1c40f" font-weight="bold">COST: 2</text>
  <text x="220" y="35" font-family="Arial" font-size="8" fill="#9b59b6" text-anchor="end">+2 CPX</text>
  
  <rect x="10" y="44" width="230" height="32" fill="#0f3460" rx="5"/>
  <text x="125" y="66" font-family="Georgia" font-size="14" fill="#fff" text-anchor="middle" font-weight="bold">GILLS</text>
  
  <rect x="10" y="80" width="110" height="48" fill="#0a0a15" stroke="#e94560" rx="5"/>
  <text x="65" y="92" font-family="Arial" font-size="8" fill="#e94560" text-anchor="middle" font-weight="bold">REQUIRES (1)</text>
  <text font-family="Arial" font-size="7" text-anchor="middle"><tspan x="65" dy="10" fill="#e94560">Bilateral S… ◀</tspan></text>
  
  <rect x="130" y="80" width="110" height="48" fill="#0a0a15" stroke="#27ae60" rx="5"/>
  <text x="185" y="92" font-family="Arial" font-size="8" fill="#27ae60" text-anchor="middle" font-weight="bold">UNLOCKS (15)</text>
  <text font-family="Arial" font-size="7" text-anchor="middle"><tspan x="185" dy="10" fill="#27ae60">Notochord ▶</tspan><tspan x="185" dy="10" fill="#27ae60">Cartilagino… ▶</tspan><tspan x="185" dy="10" fill="#27ae60">Bony Skelet… ▶</tspan></text>
  
  <rect x="10" y="132" width="230" height="22" fill="#0a0a15" stroke="#3a3a5a" rx="5"/>
  <text x="125" y="147" font-family="Arial" font-size="8" fill="#3498db" text-anchor="middle">[Aquatic] [Respiration]</text>
  
  <rect x="10" y="158" width="230" height="70" fill="#0a0a15" stroke="#27ae60" rx="5"/>
  <text x="20" y="173" font-family="Arial" font-size="9" fill="#27ae60" font-weight="bold">GRANTS:</text>
  <text x="20" y="186" font-family="Arial" font-size="8" fill="#ccc">TILES: Occupy Ocean, Shallow Sea, Reef, Fr...</text>
  <text x="20" y="198" font-family="Arial" font-size="8" fill="#ccc">Required for aquatic life.</text>
  <text x="20" y="210" font-family="Arial" font-size="8" fill="#ccc"></text>
  
  <rect x="10" y="232" width="230" height="55" fill="#0a0a15" stroke="#888" rx="5"/>
  <text x="20" y="246" font-family="Arial" font-size="8" fill="#888" font-style="italic">SCIENCE:</text>
  <text x="20" y="258" font-family="Arial" font-size="7" fill="#666">Gills extract dissolved O2 via countercurrent exchange,</text>
  <text x="20" y="268" font-family="Arial" font-size="7" fill="#666"> ~80% efficient</text>
  
  <rect x="10" y="291" width="230" height="20" fill="#0f3460" rx="5"/>
  <text x="125" y="305" font-family="Arial" font-size="9" fill="#888" text-anchor="middle">[Various]</text>
  
  <rect x="10" y="315" width="230" height="25" fill="#0a0a15" stroke="#444" rx="5"/>
  <text x="20" y="330" font-family="Arial" font-size="7" fill="#555">◀ Hard req  ◁ Soft req (cost-1)</text>
  <text x="230" y="330" font-family="Arial" font-size="7" fill="#555" text-anchor="end">▶ Enables</text>
</g>
<g transform="translate(270, 730)">
  <defs>
    <linearGradient id="cardBg" x1="0%" y1="0%" x2="0%" y2="100%">
      <stop offset="0%" style="stop-color:#1a1a2e"/>
      <stop offset="100%" style="stop-color:#16213e"/>
    </linearGradient>
    <linearGradient id="eraGrad" x1="0%" y1="0%" x2="100%" y2="0%">
      <stop offset="0%" style="stop-color:#F4B8D0"/>
      <stop offset="100%" style="stop-color:#F4B8D0"/>
    </linearGradient>
  </defs>
  
  <rect width="250" height="350" fill="url(#cardBg)" rx="15"/>
  <rect x="5" y="5" width="240" height="340" fill="none" stroke="#e94560" stroke-width="2" rx="12"/>
  
  <rect x="10" y="10" width="230" height="30" fill="url(#eraGrad)" rx="8"/>
  <text x="125" y="25" font-family="Arial" font-size="10" fill="#2d2d2d" text-anchor="middle" font-weight="bold">ERA 0-11 (Cam-Qua)</text>
  <text x="30" y="35" font-family="Arial" font-size="8" fill="#f1c40f" font-weight="bold">COST: 2</text>
  <text x="220" y="35" font-family="Arial" font-size="8" fill="#9b59b6" text-anchor="end">+2 CPX</text>
  
  <rect x="10" y="44" width="230" height="32" fill="#0f3460" rx="5"/>
  <text x="125" y="66" font-family="Georgia" font-size="14" fill="#fff" text-anchor="middle" font-weight="bold">NOTOCHORD</text>
  
  <rect x="10" y="80" width="110" height="48" fill="#0a0a15" stroke="#e94560" rx="5"/>
  <text x="65" y="92" font-family="Arial" font-size="8" fill="#e94560" text-anchor="middle" font-weight="bold">REQUIRES (2)</text>
  <text font-family="Arial" font-size="7" text-anchor="middle"><tspan x="65" dy="10" fill="#e94560">Bilateral S… ◀</tspan><tspan x="65" dy="10" fill="#888">Gills ◁</tspan></text>
  
  <rect x="130" y="80" width="110" height="48" fill="#0a0a15" stroke="#27ae60" rx="5"/>
  <text x="185" y="92" font-family="Arial" font-size="8" fill="#27ae60" text-anchor="middle" font-weight="bold">UNLOCKS (1)</text>
  <text font-family="Arial" font-size="7" text-anchor="middle"><tspan x="185" dy="10" fill="#27ae60">Vertebral C… ▶</tspan></text>
  
  <rect x="10" y="132" width="230" height="22" fill="#0a0a15" stroke="#3a3a5a" rx="5"/>
  <text x="125" y="147" font-family="Arial" font-size="8" fill="#3498db" text-anchor="middle">[Chordate]</text>
  
  <rect x="10" y="158" width="230" height="70" fill="#0a0a15" stroke="#27ae60" rx="5"/>
  <text x="20" y="173" font-family="Arial" font-size="9" fill="#27ae60" font-weight="bold">GRANTS:</text>
  <text x="20" y="186" font-family="Arial" font-size="8" fill="#ccc">FOUNDATION: Unlocks vertebrate traits</text>
  <text x="20" y="198" font-family="Arial" font-size="8" fill="#ccc">-1 cost if have Gills.</text>
  <text x="20" y="210" font-family="Arial" font-size="8" fill="#ccc"></text>
  
  <rect x="10" y="232" width="230" height="55" fill="#0a0a15" stroke="#888" rx="5"/>
  <text x="20" y="246" font-family="Arial" font-size="8" fill="#888" font-style="italic">SCIENCE:</text>
  <text x="20" y="258" font-family="Arial" font-size="7" fill="#666">The notochord is a flexible rod providing skeletal supp</text>
  <text x="20" y="268" font-family="Arial" font-size="7" fill="#666">ort, precursor to the spi...</text>
  
  <rect x="10" y="291" width="230" height="20" fill="#0f3460" rx="5"/>
  <text x="125" y="305" font-family="Arial" font-size="9" fill="#888" text-anchor="middle">[Chordata]</text>
  
  <rect x="10" y="315" width="230" height="25" fill="#0a0a15" stroke="#444" rx="5"/>
  <text x="20" y="330" font-family="Arial" font-size="7" fill="#555">◀ Hard req  ◁ Soft req (cost-1)</text>
  <text x="230" y="330" font-family="Arial" font-size="7" fill="#555" text-anchor="end">▶ Enables</text>
</g>
<g transform="translate(530, 730)">
  <defs>
    <linearGradient id="cardBg" x1="0%" y1="0%" x2="0%" y2="100%">
      <stop offset="0%" style="stop-color:#1a1a2e"/>
      <stop offset="100%" style="stop-color:#16213e"/>
    </linearGradient>
    <linearGradient id="eraGrad" x1="0%" y1="0%" x2="100%" y2="0%">
      <stop offset="0%" style="stop-color:#F4B8D0"/>
      <stop offset="100%" style="stop-color:#F4B8D0"/>
    </linearGradient>
  </defs>
  
  <rect width="250" height="350" fill="url(#cardBg)" rx="15"/>
  <rect x="5" y="5" width="240" height="340" fill="none" stroke="#e94560" stroke-width="2" rx="12"/>
  
  <rect x="10" y="10" width="230" height="30" fill="url(#eraGrad)" rx="8"/>
  <text x="125" y="25" font-family="Arial" font-size="10" fill="#2d2d2d" text-anchor="middle" font-weight="bold">ERA 0-11 (Cam-Qua)</text>
  <text x="30" y="35" font-family="Arial" font-size="8" fill="#f1c40f" font-weight="bold">COST: 3</text>
  <text x="220" y="35" font-family="Arial" font-size="8" fill="#9b59b6" text-anchor="end">+3 CPX</text>
  
  <rect x="10" y="44" width="230" height="32" fill="#0f3460" rx="5"/>
  <text x="125" y="66" font-family="Georgia" font-size="14" fill="#fff" text-anchor="middle" font-weight="bold">VERTEBRAL COLUMN</text>
  
  <rect x="10" y="80" width="110" height="48" fill="#0a0a15" stroke="#e94560" rx="5"/>
  <text x="65" y="92" font-family="Arial" font-size="8" fill="#e94560" text-anchor="middle" font-weight="bold">REQUIRES (1)</text>
  <text font-family="Arial" font-size="7" text-anchor="middle"><tspan x="65" dy="10" fill="#e94560">Notochord ◀</tspan></text>
  
  <rect x="130" y="80" width="110" height="48" fill="#0a0a15" stroke="#27ae60" rx="5"/>
  <text x="185" y="92" font-family="Arial" font-size="8" fill="#27ae60" text-anchor="middle" font-weight="bold">UNLOCKS (3)</text>
  <text font-family="Arial" font-size="7" text-anchor="middle"><tspan x="185" dy="10" fill="#27ae60">Jaws ▶</tspan><tspan x="185" dy="10" fill="#27ae60">Bony Skelet… ▶</tspan><tspan x="185" dy="10" fill="#27ae60">Large Size ▶</tspan></text>
  
  <rect x="10" y="132" width="230" height="22" fill="#0a0a15" stroke="#3a3a5a" rx="5"/>
  <text x="125" y="147" font-family="Arial" font-size="8" fill="#3498db" text-anchor="middle">[Vertebrate] [Bony]</text>
  
  <rect x="10" y="158" width="230" height="70" fill="#0a0a15" stroke="#27ae60" rx="5"/>
  <text x="20" y="173" font-family="Arial" font-size="9" fill="#27ae60" font-weight="bold">GRANTS:</text>
  <text x="20" y="186" font-family="Arial" font-size="8" fill="#ccc">COMPETITION: +1 vs invertebrates</text>
  <text x="20" y="198" font-family="Arial" font-size="8" fill="#ccc">Enables larger body sizes.</text>
  <text x="20" y="210" font-family="Arial" font-size="8" fill="#ccc"></text>
  
  <rect x="10" y="232" width="230" height="55" fill="#0a0a15" stroke="#888" rx="5"/>
  <text x="20" y="246" font-family="Arial" font-size="8" fill="#888" font-style="italic">SCIENCE:</text>
  <text x="20" y="258" font-family="Arial" font-size="7" fill="#666">Vertebrae replaced the notochord, enabling larger body </text>
  <text x="20" y="268" font-family="Arial" font-size="7" fill="#666">sizes and complex movemen...</text>
  
  <rect x="10" y="291" width="230" height="20" fill="#0f3460" rx="5"/>
  <text x="125" y="305" font-family="Arial" font-size="9" fill="#888" text-anchor="middle">[Vertebrata]</text>
  
  <rect x="10" y="315" width="230" height="25" fill="#0a0a15" stroke="#444" rx="5"/>
  <text x="20" y="330" font-family="Arial" font-size="7" fill="#555">◀ Hard req  ◁ Soft req (cost-1)</text>
  <text x="230" y="330" font-family="Arial" font-size="7" fill="#555" text-anchor="end">▶ Enables</text>
</g></svg>