<?xml version="1.0" encoding="UTF-8"?>
<svg xmlns="http://www.w3.org/2000/svg" viewBox="0 0 790 1090" width="790" height="1090">
  <rect width="790" height="1090" fill="#ffffff"/>
<g transform="translate(10, 10)">
  <defs>
    <linearGradient id="cardBg" x1="0%" y1="0%" x2="0%" y2="100%">
      <stop offset="0%" style="stop-color:#1a1a2e"/>
      <stop offset="100%" style="stop-color:#16213e"/>
    </linearGradient>
    <linearGradient id="eraGrad" x1="0%" y1="0%" x2="100%" y2="0%">
      <stop offset="0%" style="stop-color:#F4B8D0"/>
      <stop offset="100%" style="stop-color:#F4B8D0"/>
    </linearGradient>
  </defs>
  
  <rect width="250" height="350" fill="url(#cardBg)" rx="15"/>
  <rect x="5" y="5" width="240" height="340" fill="none" stroke="#e94560" stroke-width="2" rx="12"/>
  
  <rect x="10" y="10" width="230" height="30" fill="url(#eraGrad)" rx="8"/>
  <text x="125" y="25" font-family="Arial" font-size="10" fill="#2d2d2d" text-anchor="middle" font-weight="bold">ERA 0-11 (Cam-Qua)</text>
  <text x="30" y="35" font-family="Arial" font-size="8" fill="#f1c40f" font-weight="bold">COST: 1</text>
  <text x="220" y="35" font-family="Arial" font-size="8" fill="#9b59b6" text-anchor="end">+1 CPX</text>
  
  <rect x="10" y="44" width="230" height="32" fill="#0f3460" rx="5"/>
  <text x="125" y="66" font-family="Georgia" font-size="14" fill="#fff" text-anchor="middle" font-weight="bold">BROADCAST SPAWNING</text>
  
  <rect x="10" y="80" width="110" height="48" fill="#0a0a15" stroke="#e94560" rx="5"/>
  <text x="65" y="92" font-family="Arial" font-size="8" fill="#e94560" text-anchor="middle" font-weight="bold">REQUIRES (2)</text>
  <text font-family="Arial" font-size="7" text-anchor="middle"><tspan x="65" dy="10" fill="#e94560">Aquatic Eggs ◀</tspan><tspan x="65" dy="10" fill="#888">Gills ◁</tspan></text>
  
  <rect x="130" y="80" width="110" height="48" fill="#0a0a15" stroke="#27ae60" rx="5"/>
  <text x="185" y="92" font-family="Arial" font-size="8" fill="#27ae60" text-anchor="middle" font-weight="bold">UNLOCKS</text>
  <text font-family="Arial" font-size="7" text-anchor="middle"><tspan x="185" dy="10" fill="#555">—</tspan></text>
  
  <rect x="10" y="132" width="230" height="22" fill="#0a0a15" stroke="#3a3a5a" rx="5"/>
  <text x="125" y="147" font-family="Arial" font-size="8" fill="#3498db" text-anchor="middle">[Aquatic]</text>
  
  <rect x="10" y="158" width="230" height="70" fill="#0a0a15" stroke="#27ae60" rx="5"/>
  <text x="20" y="173" font-family="Arial" font-size="9" fill="#27ae60" font-weight="bold">GRANTS:</text>
  <text x="20" y="186" font-family="Arial" font-size="8" fill="#ccc">ALLELES: +3/era (massive offspring)</text>
  <text x="20" y="198" font-family="Arial" font-size="8" fill="#ccc">RISK: Extremely vulnerable to marine extin...</text>
  <text x="20" y="210" font-family="Arial" font-size="8" fill="#ccc"></text>
  
  <rect x="10" y="232" width="230" height="55" fill="#0a0a15" stroke="#888" rx="5"/>
  <text x="20" y="246" font-family="Arial" font-size="8" fill="#888" font-style="italic">SCIENCE:</text>
  <text x="20" y="258" font-family="Arial" font-size="7" fill="#666">Release millions of gametes into water - low survival b</text>
  <text x="20" y="268" font-family="Arial" font-size="7" fill="#666">ut huge numbers</text>
  
  <rect x="10" y="291" width="230" height="20" fill="#0f3460" rx="5"/>
  <text x="125" y="305" font-family="Arial" font-size="9" fill="#888" text-anchor="middle">[Various marine]</text>
  
  <rect x="10" y="315" width="230" height="25" fill="#0a0a15" stroke="#444" rx="5"/>
  <text x="20" y="330" font-family="Arial" font-size="7" fill="#555">◀ Hard req  ◁ Soft req (cost-1)</text>
  <text x="230" y="330" font-family="Arial" font-size="7" fill="#555" text-anchor="end">▶ Enables</text>
</g>
<g transform="translate(270, 10)">
  <defs>
    <linearGradient id="cardBg" x1="0%" y1="0%" x2="0%" y2="100%">
      <stop offset="0%" style="stop-color:#1a1a2e"/>
      <stop offset="100%" style="stop-color:#16213e"/>
    </linearGradient>
    <linearGradient id="eraGrad" x1="0%" y1="0%" x2="100%" y2="0%">
      <stop offset="0%" style="stop-color:#67A599"/>
      <stop offset="100%" style="stop-color:#67A599"/>
    </linearGradient>
  </defs>
  
  <rect width="250" height="350" fill="url(#cardBg)" rx="15"/>
  <rect x="5" y="5" width="240" height="340" fill="none" stroke="#e94560" stroke-width="2" rx="12"/>
  
  <rect x="10" y="10" width="230" height="30" fill="url(#eraGrad)" rx="8"/>
  <text x="125" y="25" font-family="Arial" font-size="10" fill="#2d2d2d" text-anchor="middle" font-weight="bold">ERA 4-11 (Car-Qua)</text>
  <text x="30" y="35" font-family="Arial" font-size="8" fill="#f1c40f" font-weight="bold">COST: 5</text>
  <text x="220" y="35" font-family="Arial" font-size="8" fill="#9b59b6" text-anchor="end">+4 CPX</text>
  
  <rect x="10" y="44" width="230" height="32" fill="#0f3460" rx="5"/>
  <text x="125" y="66" font-family="Georgia" font-size="14" fill="#fff" text-anchor="middle" font-weight="bold">AMNIOTIC EGG</text>
  
  <rect x="10" y="80" width="110" height="48" fill="#0a0a15" stroke="#e94560" rx="5"/>
  <text x="65" y="92" font-family="Arial" font-size="8" fill="#e94560" text-anchor="middle" font-weight="bold">REQUIRES (2)</text>
  <text font-family="Arial" font-size="7" text-anchor="middle"><tspan x="65" dy="10" fill="#e94560">Tetrapod Li… ◀</tspan><tspan x="65" dy="10" fill="#888">Lungs ◁</tspan></text>
  
  <rect x="130" y="80" width="110" height="48" fill="#0a0a15" stroke="#27ae60" rx="5"/>
  <text x="185" y="92" font-family="Arial" font-size="8" fill="#27ae60" text-anchor="middle" font-weight="bold">UNLOCKS (5)</text>
  <text font-family="Arial" font-size="7" text-anchor="middle"><tspan x="185" dy="10" fill="#27ae60">Reptilian S… ▶</tspan><tspan x="185" dy="10" fill="#27ae60">Endothermy ▶</tspan><tspan x="185" dy="10" fill="#27ae60">Synapsid Sk… ▶</tspan></text>
  
  <rect x="10" y="132" width="230" height="22" fill="#0a0a15" stroke="#3a3a5a" rx="5"/>
  <text x="125" y="147" font-family="Arial" font-size="8" fill="#3498db" text-anchor="middle">[Terrestrial] [Amniote]</text>
  
  <rect x="10" y="158" width="230" height="70" fill="#0a0a15" stroke="#27ae60" rx="5"/>
  <text x="20" y="173" font-family="Arial" font-size="9" fill="#27ae60" font-weight="bold">GRANTS:</text>
  <text x="20" y="186" font-family="Arial" font-size="8" fill="#ccc">TILES: Reproduce on any land tile (no wate...</text>
  <text x="20" y="198" font-family="Arial" font-size="8" fill="#ccc">FOUNDATION: Unlocks reptile/mammal paths.</text>
  <text x="20" y="210" font-family="Arial" font-size="8" fill="#ccc"></text>
  
  <rect x="10" y="232" width="230" height="55" fill="#0a0a15" stroke="#888" rx="5"/>
  <text x="20" y="246" font-family="Arial" font-size="8" fill="#888" font-style="italic">SCIENCE:</text>
  <text x="20" y="258" font-family="Arial" font-size="7" fill="#666">Amniotic membrane provides private pond for embryo - ke</text>
  <text x="20" y="268" font-family="Arial" font-size="7" fill="#666">y terrestrial adaptation</text>
  
  <rect x="10" y="291" width="230" height="20" fill="#0f3460" rx="5"/>
  <text x="125" y="305" font-family="Arial" font-size="9" fill="#888" text-anchor="middle">[Amniota]</text>
  
  <rect x="10" y="315" width="230" height="25" fill="#0a0a15" stroke="#444" rx="5"/>
  <text x="20" y="330" font-family="Arial" font-size="7" fill="#555">◀ Hard req  ◁ Soft req (cost-1)</text>
  <text x="230" y="330" font-family="Arial" font-size="7" fill="#555" text-anchor="end">▶ Enables</text>
</g>
<g transform="translate(530, 10)">
  <defs>
    <linearGradient id="cardBg" x1="0%" y1="0%" x2="0%" y2="100%">
      <stop offset="0%" style="stop-color:#1a1a2e"/>
      <stop offset="100%" style="stop-color:#16213e"/>
    </linearGradient>
    <linearGradient id="eraGrad" x1="0%" y1="0%" x2="100%" y2="0%">
      <stop offset="0%" style="stop-color:#67A599"/>
      <stop offset="100%" style="stop-color:#67A599"/>
    </linearGradient>
  </defs>
  
  <rect width="250" height="350" fill="url(#cardBg)" rx="15"/>
  <rect x="5" y="5" width="240" height="340" fill="none" stroke="#e94560" stroke-width="2" rx="12"/>
  
  <rect x="10" y="10" width="230" height="30" fill="url(#eraGrad)" rx="8"/>
  <text x="125" y="25" font-family="Arial" font-size="10" fill="#2d2d2d" text-anchor="middle" font-weight="bold">ERA 4-11 (Car-Qua)</text>
  <text x="30" y="35" font-family="Arial" font-size="8" fill="#f1c40f" font-weight="bold">COST: 2</text>
  <text x="220" y="35" font-family="Arial" font-size="8" fill="#9b59b6" text-anchor="end">+2 CPX</text>
  
  <rect x="10" y="44" width="230" height="32" fill="#0f3460" rx="5"/>
  <text x="125" y="66" font-family="Georgia" font-size="14" fill="#fff" text-anchor="middle" font-weight="bold">REPTILIAN SCALES</text>
  
  <rect x="10" y="80" width="110" height="48" fill="#0a0a15" stroke="#e94560" rx="5"/>
  <text x="65" y="92" font-family="Arial" font-size="8" fill="#e94560" text-anchor="middle" font-weight="bold">REQUIRES (1)</text>
  <text font-family="Arial" font-size="7" text-anchor="middle"><tspan x="65" dy="10" fill="#e94560">Amniotic Egg ◀</tspan></text>
  
  <rect x="130" y="80" width="110" height="48" fill="#0a0a15" stroke="#27ae60" rx="5"/>
  <text x="185" y="92" font-family="Arial" font-size="8" fill="#27ae60" text-anchor="middle" font-weight="bold">UNLOCKS (3)</text>
  <text font-family="Arial" font-size="7" text-anchor="middle"><tspan x="185" dy="10" fill="#27ae60">Upright Pos… ▶</tspan><tspan x="185" dy="10" fill="#27ae60">Osteoderms ▶</tspan><tspan x="185" dy="10" fill="#27ae60">Flippers ▶</tspan></text>
  
  <rect x="10" y="132" width="230" height="22" fill="#0a0a15" stroke="#3a3a5a" rx="5"/>
  <text x="125" y="147" font-family="Arial" font-size="8" fill="#3498db" text-anchor="middle">[Terrestrial] [Armored] [Reptile]</text>
  
  <rect x="10" y="158" width="230" height="70" fill="#0a0a15" stroke="#27ae60" rx="5"/>
  <text x="20" y="173" font-family="Arial" font-size="9" fill="#27ae60" font-weight="bold">GRANTS:</text>
  <text x="20" y="186" font-family="Arial" font-size="8" fill="#ccc">TILES: +1 on Desert (water retention)</text>
  <text x="20" y="198" font-family="Arial" font-size="8" fill="#ccc">COMPETITION: +1 vs unarmored terrestrial.</text>
  <text x="20" y="210" font-family="Arial" font-size="8" fill="#ccc"></text>
  
  <rect x="10" y="232" width="230" height="55" fill="#0a0a15" stroke="#888" rx="5"/>
  <text x="20" y="246" font-family="Arial" font-size="8" fill="#888" font-style="italic">SCIENCE:</text>
  <text x="20" y="258" font-family="Arial" font-size="7" fill="#666">Keratinized scales prevent water loss - crucial for ari</text>
  <text x="20" y="268" font-family="Arial" font-size="7" fill="#666">d environments</text>
  
  <rect x="10" y="291" width="230" height="20" fill="#0f3460" rx="5"/>
  <text x="125" y="305" font-family="Arial" font-size="9" fill="#888" text-anchor="middle">[Reptilia]</text>
  
  <rect x="10" y="315" width="230" height="25" fill="#0a0a15" stroke="#444" rx="5"/>
  <text x="20" y="330" font-family="Arial" font-size="7" fill="#555">◀ Hard req  ◁ Soft req (cost-1)</text>
  <text x="230" y="330" font-family="Arial" font-size="7" fill="#555" text-anchor="end">▶ Enables</text>
</g>
<g transform="translate(10, 370)">
  <defs>
    <linearGradient id="cardBg" x1="0%" y1="0%" x2="0%" y2="100%">
      <stop offset="0%" style="stop-color:#1a1a2e"/>
      <stop offset="100%" style="stop-color:#16213e"/>
    </linearGradient>
    <linearGradient id="eraGrad" x1="0%" y1="0%" x2="100%" y2="0%">
      <stop offset="0%" style="stop-color:#F4B8D0"/>
      <stop offset="100%" style="stop-color:#F4B8D0"/>
    </linearGradient>
  </defs>
  
  <rect width="250" height="350" fill="url(#cardBg)" rx="15"/>
  <rect x="5" y="5" width="240" height="340" fill="none" stroke="#e94560" stroke-width="2" rx="12"/>
  
  <rect x="10" y="10" width="230" height="30" fill="url(#eraGrad)" rx="8"/>
  <text x="125" y="25" font-family="Arial" font-size="10" fill="#2d2d2d" text-anchor="middle" font-weight="bold">ERA 0-11 (Cam-Qua)</text>
  <text x="30" y="35" font-family="Arial" font-size="8" fill="#f1c40f" font-weight="bold">COST: 0</text>
  <text x="220" y="35" font-family="Arial" font-size="8" fill="#9b59b6" text-anchor="end">+0 CPX</text>
  
  <rect x="10" y="44" width="230" height="32" fill="#0f3460" rx="5"/>
  <text x="125" y="66" font-family="Georgia" font-size="14" fill="#fff" text-anchor="middle" font-weight="bold">ECTOTHERMY</text>
  
  <rect x="10" y="80" width="110" height="48" fill="#0a0a15" stroke="#e94560" rx="5"/>
  <text x="65" y="92" font-family="Arial" font-size="8" fill="#e94560" text-anchor="middle" font-weight="bold">REQUIRES</text>
  <text font-family="Arial" font-size="7" text-anchor="middle"><tspan x="65" dy="10" fill="#555">—</tspan></text>
  
  <rect x="130" y="80" width="110" height="48" fill="#0a0a15" stroke="#27ae60" rx="5"/>
  <text x="185" y="92" font-family="Arial" font-size="8" fill="#27ae60" text-anchor="middle" font-weight="bold">UNLOCKS</text>
  <text font-family="Arial" font-size="7" text-anchor="middle"><tspan x="185" dy="10" fill="#555">—</tspan></text>
  
  <rect x="10" y="132" width="230" height="22" fill="#0a0a15" stroke="#3a3a5a" rx="5"/>
  <text x="125" y="147" font-family="Arial" font-size="8" fill="#3498db" text-anchor="middle">[Cold-Vulnerable] [Low-Energy]</text>
  
  <rect x="10" y="158" width="230" height="70" fill="#0a0a15" stroke="#27ae60" rx="5"/>
  <text x="20" y="173" font-family="Arial" font-size="9" fill="#27ae60" font-weight="bold">GRANTS:</text>
  <text x="20" y="186" font-family="Arial" font-size="8" fill="#ccc">ALLELES: +1/era (low food needs)</text>
  <text x="20" y="198" font-family="Arial" font-size="8" fill="#ccc">RISK: DOOMED during ice ages.</text>
  <text x="20" y="210" font-family="Arial" font-size="8" fill="#ccc"></text>
  
  <rect x="10" y="232" width="230" height="55" fill="#0a0a15" stroke="#888" rx="5"/>
  <text x="20" y="246" font-family="Arial" font-size="8" fill="#888" font-style="italic">SCIENCE:</text>
  <text x="20" y="258" font-family="Arial" font-size="7" fill="#666">Body temperature depends on environment - efficient but</text>
  <text x="20" y="268" font-family="Arial" font-size="7" fill="#666"> limits activity in cold</text>
  
  <rect x="10" y="291" width="230" height="20" fill="#0f3460" rx="5"/>
  <text x="125" y="305" font-family="Arial" font-size="9" fill="#888" text-anchor="middle">[Default]</text>
  
  <rect x="10" y="315" width="230" height="25" fill="#0a0a15" stroke="#444" rx="5"/>
  <text x="20" y="330" font-family="Arial" font-size="7" fill="#555">◀ Hard req  ◁ Soft req (cost-1)</text>
  <text x="230" y="330" font-family="Arial" font-size="7" fill="#555" text-anchor="end">▶ Enables</text>
</g>
<g transform="translate(270, 370)">
  <defs>
    <linearGradient id="cardBg" x1="0%" y1="0%" x2="0%" y2="100%">
      <stop offset="0%" style="stop-color:#1a1a2e"/>
      <stop offset="100%" style="stop-color:#16213e"/>
    </linearGradient>
    <linearGradient id="eraGrad" x1="0%" y1="0%" x2="100%" y2="0%">
      <stop offset="0%" style="stop-color:#F04028"/>
      <stop offset="100%" style="stop-color:#F04028"/>
    </linearGradient>
  </defs>
  
  <rect width="250" height="350" fill="url(#cardBg)" rx="15"/>
  <rect x="5" y="5" width="240" height="340" fill="none" stroke="#e94560" stroke-width="2" rx="12"/>
  
  <rect x="10" y="10" width="230" height="30" fill="url(#eraGrad)" rx="8"/>
  <text x="125" y="25" font-family="Arial" font-size="10" fill="#ffffff" text-anchor="middle" font-weight="bold">ERA 5-11 (Per-Qua)</text>
  <text x="30" y="35" font-family="Arial" font-size="8" fill="#f1c40f" font-weight="bold">COST: 6</text>
  <text x="220" y="35" font-family="Arial" font-size="8" fill="#9b59b6" text-anchor="end">+5 CPX</text>
  
  <rect x="10" y="44" width="230" height="32" fill="#0f3460" rx="5"/>
  <text x="125" y="66" font-family="Georgia" font-size="14" fill="#fff" text-anchor="middle" font-weight="bold">ENDOTHERMY</text>
  
  <rect x="10" y="80" width="110" height="48" fill="#0a0a15" stroke="#e94560" rx="5"/>
  <text x="65" y="92" font-family="Arial" font-size="8" fill="#e94560" text-anchor="middle" font-weight="bold">REQUIRES (3)</text>
  <text font-family="Arial" font-size="7" text-anchor="middle"><tspan x="65" dy="10" fill="#e94560">Amniotic Egg ◀</tspan><tspan x="65" dy="10" fill="#888">Synapsid Sk… ◁</tspan></text>
  
  <rect x="130" y="80" width="110" height="48" fill="#0a0a15" stroke="#27ae60" rx="5"/>
  <text x="185" y="92" font-family="Arial" font-size="8" fill="#27ae60" text-anchor="middle" font-weight="bold">UNLOCKS (11)</text>
  <text font-family="Arial" font-size="7" text-anchor="middle"><tspan x="185" dy="10" fill="#27ae60">Fur ▶</tspan><tspan x="185" dy="10" fill="#27ae60">Mammary Gla… ▶</tspan><tspan x="185" dy="10" fill="#27ae60">Upright Pos… ▶</tspan></text>
  
  <rect x="10" y="132" width="230" height="22" fill="#0a0a15" stroke="#3a3a5a" rx="5"/>
  <text x="125" y="147" font-family="Arial" font-size="8" fill="#3498db" text-anchor="middle">[Cold-Resistant] [Warm-Blooded]</text>
  
  <rect x="10" y="158" width="230" height="70" fill="#0a0a15" stroke="#27ae60" rx="5"/>
  <text x="20" y="173" font-family="Arial" font-size="9" fill="#27ae60" font-weight="bold">GRANTS:</text>
  <text x="20" y="186" font-family="Arial" font-size="8" fill="#ccc">TILES: Occupy Ice, Mountain</text>
  <text x="20" y="198" font-family="Arial" font-size="8" fill="#ccc">SURVIVAL: SAFE during ice ages</text>
  <text x="20" y="210" font-family="Arial" font-size="8" fill="#ccc">ALLELES: -1/era (high food).</text>
  
  <rect x="10" y="232" width="230" height="55" fill="#0a0a15" stroke="#888" rx="5"/>
  <text x="20" y="246" font-family="Arial" font-size="8" fill="#888" font-style="italic">SCIENCE:</text>
  <text x="20" y="258" font-family="Arial" font-size="7" fill="#666">Internal heat production requires 10x more food but ena</text>
  <text x="20" y="268" font-family="Arial" font-size="7" fill="#666">bles constant activity</text>
  
  <rect x="10" y="291" width="230" height="20" fill="#0f3460" rx="5"/>
  <text x="125" y="305" font-family="Arial" font-size="9" fill="#888" text-anchor="middle">[Synapsida/Aves]</text>
  
  <rect x="10" y="315" width="230" height="25" fill="#0a0a15" stroke="#444" rx="5"/>
  <text x="20" y="330" font-family="Arial" font-size="7" fill="#555">◀ Hard req  ◁ Soft req (cost-1)</text>
  <text x="230" y="330" font-family="Arial" font-size="7" fill="#555" text-anchor="end">▶ Enables</text>
</g>
<g transform="translate(530, 370)">
  <defs>
    <linearGradient id="cardBg" x1="0%" y1="0%" x2="0%" y2="100%">
      <stop offset="0%" style="stop-color:#1a1a2e"/>
      <stop offset="100%" style="stop-color:#16213e"/>
    </linearGradient>
    <linearGradient id="eraGrad" x1="0%" y1="0%" x2="100%" y2="0%">
      <stop offset="0%" style="stop-color:#F04028"/>
      <stop offset="100%" style="stop-color:#F04028"/>
    </linearGradient>
  </defs>
  
  <rect width="250" height="350" fill="url(#cardBg)" rx="15"/>
  <rect x="5" y="5" width="240" height="340" fill="none" stroke="#e94560" stroke-width="2" rx="12"/>
  
  <rect x="10" y="10" width="230" height="30" fill="url(#eraGrad)" rx="8"/>
  <text x="125" y="25" font-family="Arial" font-size="10" fill="#ffffff" text-anchor="middle" font-weight="bold">ERA 5-11 (Per-Qua)</text>
  <text x="30" y="35" font-family="Arial" font-size="8" fill="#f1c40f" font-weight="bold">COST: 4</text>
  <text x="220" y="35" font-family="Arial" font-size="8" fill="#9b59b6" text-anchor="end">+2 CPX</text>
  
  <rect x="10" y="44" width="230" height="32" fill="#0f3460" rx="5"/>
  <text x="125" y="66" font-family="Georgia" font-size="14" fill="#fff" text-anchor="middle" font-weight="bold">FUR</text>
  
  <rect x="10" y="80" width="110" height="48" fill="#0a0a15" stroke="#e94560" rx="5"/>
  <text x="65" y="92" font-family="Arial" font-size="8" fill="#e94560" text-anchor="middle" font-weight="bold">REQUIRES (2)</text>
  <text font-family="Arial" font-size="7" text-anchor="middle"><tspan x="65" dy="10" fill="#e94560">Endothermy ◀</tspan><tspan x="65" dy="10" fill="#888">Synapsid Sk… ◁</tspan></text>
  
  <rect x="130" y="80" width="110" height="48" fill="#0a0a15" stroke="#27ae60" rx="5"/>
  <text x="185" y="92" font-family="Arial" font-size="8" fill="#27ae60" text-anchor="middle" font-weight="bold">UNLOCKS (3)</text>
  <text font-family="Arial" font-size="7" text-anchor="middle"><tspan x="185" dy="10" fill="#27ae60">Mammary Gla… ▶</tspan><tspan x="185" dy="10" fill="#27ae60">Live Birth … ▶</tspan><tspan x="185" dy="10" fill="#27ae60">Hibernation ▶</tspan></text>
  
  <rect x="10" y="132" width="230" height="22" fill="#0a0a15" stroke="#3a3a5a" rx="5"/>
  <text x="125" y="147" font-family="Arial" font-size="8" fill="#3498db" text-anchor="middle">[Cold-Resistant] [Mammal]</text>
  
  <rect x="10" y="158" width="230" height="70" fill="#0a0a15" stroke="#27ae60" rx="5"/>
  <text x="20" y="173" font-family="Arial" font-size="9" fill="#27ae60" font-weight="bold">GRANTS:</text>
  <text x="20" y="186" font-family="Arial" font-size="8" fill="#ccc">TILES: +2 on Ice, Mountain</text>
  <text x="20" y="198" font-family="Arial" font-size="8" fill="#ccc">Reduces heat loss.</text>
  <text x="20" y="210" font-family="Arial" font-size="8" fill="#ccc"></text>
  
  <rect x="10" y="232" width="230" height="55" fill="#0a0a15" stroke="#888" rx="5"/>
  <text x="20" y="246" font-family="Arial" font-size="8" fill="#888" font-style="italic">SCIENCE:</text>
  <text x="20" y="258" font-family="Arial" font-size="7" fill="#666">Hair/fur traps air for insulation - evolved from sensor</text>
  <text x="20" y="268" font-family="Arial" font-size="7" fill="#666">y structures</text>
  
  <rect x="10" y="291" width="230" height="20" fill="#0f3460" rx="5"/>
  <text x="125" y="305" font-family="Arial" font-size="9" fill="#888" text-anchor="middle">[Mammalia]</text>
  
  <rect x="10" y="315" width="230" height="25" fill="#0a0a15" stroke="#444" rx="5"/>
  <text x="20" y="330" font-family="Arial" font-size="7" fill="#555">◀ Hard req  ◁ Soft req (cost-1)</text>
  <text x="230" y="330" font-family="Arial" font-size="7" fill="#555" text-anchor="end">▶ Enables</text>
</g>
<g transform="translate(10, 730)">
  <defs>
    <linearGradient id="cardBg" x1="0%" y1="0%" x2="0%" y2="100%">
      <stop offset="0%" style="stop-color:#1a1a2e"/>
      <stop offset="100%" style="stop-color:#16213e"/>
    </linearGradient>
    <linearGradient id="eraGrad" x1="0%" y1="0%" x2="100%" y2="0%">
      <stop offset="0%" style="stop-color:#812B92"/>
      <stop offset="100%" style="stop-color:#812B92"/>
    </linearGradient>
  </defs>
  
  <rect width="250" height="350" fill="url(#cardBg)" rx="15"/>
  <rect x="5" y="5" width="240" height="340" fill="none" stroke="#e94560" stroke-width="2" rx="12"/>
  
  <rect x="10" y="10" width="230" height="30" fill="url(#eraGrad)" rx="8"/>
  <text x="125" y="25" font-family="Arial" font-size="10" fill="#ffffff" text-anchor="middle" font-weight="bold">ERA 6-11 (Tri-Qua)</text>
  <text x="30" y="35" font-family="Arial" font-size="8" fill="#f1c40f" font-weight="bold">COST: 7</text>
  <text x="220" y="35" font-family="Arial" font-size="8" fill="#9b59b6" text-anchor="end">+3 CPX</text>
  
  <rect x="10" y="44" width="230" height="32" fill="#0f3460" rx="5"/>
  <text x="125" y="66" font-family="Georgia" font-size="14" fill="#fff" text-anchor="middle" font-weight="bold">MAMMARY GLANDS</text>
  
  <rect x="10" y="80" width="110" height="48" fill="#0a0a15" stroke="#e94560" rx="5"/>
  <text x="65" y="92" font-family="Arial" font-size="8" fill="#e94560" text-anchor="middle" font-weight="bold">REQUIRES (3)</text>
  <text font-family="Arial" font-size="7" text-anchor="middle"><tspan x="65" dy="10" fill="#e94560">Fur ◀</tspan><tspan x="65" dy="10" fill="#888">Endothermy ◁</tspan></text>
  
  <rect x="130" y="80" width="110" height="48" fill="#0a0a15" stroke="#27ae60" rx="5"/>
  <text x="185" y="92" font-family="Arial" font-size="8" fill="#27ae60" text-anchor="middle" font-weight="bold">UNLOCKS (5)</text>
  <text font-family="Arial" font-size="7" text-anchor="middle"><tspan x="185" dy="10" fill="#27ae60">Live Birth … ▶</tspan><tspan x="185" dy="10" fill="#27ae60">Placenta ▶</tspan><tspan x="185" dy="10" fill="#27ae60">Opposable D… ▶</tspan></text>
  
  <rect x="10" y="132" width="230" height="22" fill="#0a0a15" stroke="#3a3a5a" rx="5"/>
  <text x="125" y="147" font-family="Arial" font-size="8" fill="#3498db" text-anchor="middle">[Mammal] [Parental-Care]</text>
  
  <rect x="10" y="158" width="230" height="70" fill="#0a0a15" stroke="#27ae60" rx="5"/>
  <text x="20" y="173" font-family="Arial" font-size="9" fill="#27ae60" font-weight="bold">GRANTS:</text>
  <text x="20" y="186" font-family="Arial" font-size="8" fill="#ccc">ALLELES: -1/era</text>
  <text x="20" y="198" font-family="Arial" font-size="8" fill="#ccc">SURVIVAL: Offspring survive parent death</text>
  <text x="20" y="210" font-family="Arial" font-size="8" fill="#ccc">Optimal nutrition.</text>
  
  <rect x="10" y="232" width="230" height="55" fill="#0a0a15" stroke="#888" rx="5"/>
  <text x="20" y="246" font-family="Arial" font-size="8" fill="#888" font-style="italic">SCIENCE:</text>
  <text x="20" y="258" font-family="Arial" font-size="7" fill="#666">Mammary glands evolved from modified sweat glands - opt</text>
  <text x="20" y="268" font-family="Arial" font-size="7" fill="#666">imal infant nutrition</text>
  
  <rect x="10" y="291" width="230" height="20" fill="#0f3460" rx="5"/>
  <text x="125" y="305" font-family="Arial" font-size="9" fill="#888" text-anchor="middle">[Mammalia]</text>
  
  <rect x="10" y="315" width="230" height="25" fill="#0a0a15" stroke="#444" rx="5"/>
  <text x="20" y="330" font-family="Arial" font-size="7" fill="#555">◀ Hard req  ◁ Soft req (cost-1)</text>
  <text x="230" y="330" font-family="Arial" font-size="7" fill="#555" text-anchor="end">▶ Enables</text>
</g>
<g transform="translate(270, 730)">
  <defs>
    <linearGradient id="cardBg" x1="0%" y1="0%" x2="0%" y2="100%">
      <stop offset="0%" style="stop-color:#1a1a2e"/>
      <stop offset="100%" style="stop-color:#16213e"/>
    </linearGradient>
    <linearGradient id="eraGrad" x1="0%" y1="0%" x2="100%" y2="0%">
      <stop offset="0%" style="stop-color:#812B92"/>
      <stop offset="100%" style="stop-color:#812B92"/>
    </linearGradient>
  </defs>
  
  <rect width="250" height="350" fill="url(#cardBg)" rx="15"/>
  <rect x="5" y="5" width="240" height="340" fill="none" stroke="#e94560" stroke-width="2" rx="12"/>
  
  <rect x="10" y="10" width="230" height="30" fill="url(#eraGrad)" rx="8"/>
  <text x="125" y="25" font-family="Arial" font-size="10" fill="#ffffff" text-anchor="middle" font-weight="bold">ERA 6-11 (Tri-Qua)</text>
  <text x="30" y="35" font-family="Arial" font-size="8" fill="#f1c40f" font-weight="bold">COST: 5</text>
  <text x="220" y="35" font-family="Arial" font-size="8" fill="#9b59b6" text-anchor="end">+3 CPX</text>
  
  <rect x="10" y="44" width="230" height="32" fill="#0f3460" rx="5"/>
  <text x="125" y="66" font-family="Georgia" font-size="14" fill="#fff" text-anchor="middle" font-weight="bold">LIVE BIRTH (VIVIPARITY)</text>
  
  <rect x="10" y="80" width="110" height="48" fill="#0a0a15" stroke="#e94560" rx="5"/>
  <text x="65" y="92" font-family="Arial" font-size="8" fill="#e94560" text-anchor="middle" font-weight="bold">REQUIRES (2)</text>
  <text font-family="Arial" font-size="7" text-anchor="middle"><tspan x="65" dy="10" fill="#e94560">Mammary Gla… ◀</tspan><tspan x="65" dy="10" fill="#888">Fur ◁</tspan></text>
  
  <rect x="130" y="80" width="110" height="48" fill="#0a0a15" stroke="#27ae60" rx="5"/>
  <text x="185" y="92" font-family="Arial" font-size="8" fill="#27ae60" text-anchor="middle" font-weight="bold">UNLOCKS (4)</text>
  <text font-family="Arial" font-size="7" text-anchor="middle"><tspan x="185" dy="10" fill="#27ae60">Placenta ▶</tspan><tspan x="185" dy="10" fill="#27ae60">Opposable D… ▶</tspan><tspan x="185" dy="10" fill="#27ae60">Encephaliza… ▶</tspan></text>
  
  <rect x="10" y="132" width="230" height="22" fill="#0a0a15" stroke="#3a3a5a" rx="5"/>
  <text x="125" y="147" font-family="Arial" font-size="8" fill="#3498db" text-anchor="middle">[Mammal] [Protected-Offspring]</text>
  
  <rect x="10" y="158" width="230" height="70" fill="#0a0a15" stroke="#27ae60" rx="5"/>
  <text x="20" y="173" font-family="Arial" font-size="9" fill="#27ae60" font-weight="bold">GRANTS:</text>
  <text x="20" y="186" font-family="Arial" font-size="8" fill="#ccc">MARKERS: +1 marker each era (protected off...</text>
  <text x="20" y="198" font-family="Arial" font-size="8" fill="#ccc">Fewer but guaranteed survivors.</text>
  <text x="20" y="210" font-family="Arial" font-size="8" fill="#ccc"></text>
  
  <rect x="10" y="232" width="230" height="55" fill="#0a0a15" stroke="#888" rx="5"/>
  <text x="20" y="246" font-family="Arial" font-size="8" fill="#888" font-style="italic">SCIENCE:</text>
  <text x="20" y="258" font-family="Arial" font-size="7" fill="#666">Internal development protects embryo but limits offspri</text>
  <text x="20" y="268" font-family="Arial" font-size="7" fill="#666">ng number</text>
  
  <rect x="10" y="291" width="230" height="20" fill="#0f3460" rx="5"/>
  <text x="125" y="305" font-family="Arial" font-size="9" fill="#888" text-anchor="middle">[Theria]</text>
  
  <rect x="10" y="315" width="230" height="25" fill="#0a0a15" stroke="#444" rx="5"/>
  <text x="20" y="330" font-family="Arial" font-size="7" fill="#555">◀ Hard req  ◁ Soft req (cost-1)</text>
  <text x="230" y="330" font-family="Arial" font-size="7" fill="#555" text-anchor="end">▶ Enables</text>
</g>
<g transform="translate(530, 730)">
  <defs>
    <linearGradient id="cardBg" x1="0%" y1="0%" x2="0%" y2="100%">
      <stop offset="0%" style="stop-color:#1a1a2e"/>
      <stop offset="100%" style="stop-color:#16213e"/>
    </linearGradient>
    <linearGradient id="eraGrad" x1="0%" y1="0%" x2="100%" y2="0%">
      <stop offset="0%" style="stop-color:#7FC64E"/>
      <stop offset="100%" style="stop-color:#7FC64E"/>
    </linearGradient>
  </defs>
  
  <rect width="250" height="350" fill="url(#cardBg)" rx="15"/>
  <rect x="5" y="5" width="240" height="340" fill="none" stroke="#e94560" stroke-width="2" rx="12"/>
  
  <rect x="10" y="10" width="230" height="30" fill="url(#eraGrad)" rx="8"/>
  <text x="125" y="25" font-family="Arial" font-size="10" fill="#2d2d2d" text-anchor="middle" font-weight="bold">ERA 8-11 (Cre-Qua)</text>
  <text x="30" y="35" font-family="Arial" font-size="8" fill="#f1c40f" font-weight="bold">COST: 6</text>
  <text x="220" y="35" font-family="Arial" font-size="8" fill="#9b59b6" text-anchor="end">+3 CPX</text>
  
  <rect x="10" y="44" width="230" height="32" fill="#0f3460" rx="5"/>
  <text x="125" y="66" font-family="Georgia" font-size="14" fill="#fff" text-anchor="middle" font-weight="bold">PLACENTA</text>
  
  <rect x="10" y="80" width="110" height="48" fill="#0a0a15" stroke="#e94560" rx="5"/>
  <text x="65" y="92" font-family="Arial" font-size="8" fill="#e94560" text-anchor="middle" font-weight="bold">REQUIRES (2)</text>
  <text font-family="Arial" font-size="7" text-anchor="middle"><tspan x="65" dy="10" fill="#e94560">Live Birth … ◀</tspan><tspan x="65" dy="10" fill="#888">Mammary Gla… ◁</tspan></text>
  
  <rect x="130" y="80" width="110" height="48" fill="#0a0a15" stroke="#27ae60" rx="5"/>
  <text x="185" y="92" font-family="Arial" font-size="8" fill="#27ae60" text-anchor="middle" font-weight="bold">UNLOCKS</text>
  <text font-family="Arial" font-size="7" text-anchor="middle"><tspan x="185" dy="10" fill="#555">—</tspan></text>
  
  <rect x="10" y="132" width="230" height="22" fill="#0a0a15" stroke="#3a3a5a" rx="5"/>
  <text x="125" y="147" font-family="Arial" font-size="8" fill="#3498db" text-anchor="middle">[Mammal] [Placental]</text>
  
  <rect x="10" y="158" width="230" height="70" fill="#0a0a15" stroke="#27ae60" rx="5"/>
  <text x="20" y="173" font-family="Arial" font-size="9" fill="#27ae60" font-weight="bold">GRANTS:</text>
  <text x="20" y="186" font-family="Arial" font-size="8" fill="#ccc">MARKERS: Offspring start with +1 tag from ...</text>
  <text x="20" y="198" font-family="Arial" font-size="8" fill="#ccc">Extended development.</text>
  <text x="20" y="210" font-family="Arial" font-size="8" fill="#ccc"></text>
  
  <rect x="10" y="232" width="230" height="55" fill="#0a0a15" stroke="#888" rx="5"/>
  <text x="20" y="246" font-family="Arial" font-size="8" fill="#888" font-style="italic">SCIENCE:</text>
  <text x="20" y="258" font-family="Arial" font-size="7" fill="#666">Placenta enables extended nutrient transfer - offspring</text>
  <text x="20" y="268" font-family="Arial" font-size="7" fill="#666"> born more developed</text>
  
  <rect x="10" y="291" width="230" height="20" fill="#0f3460" rx="5"/>
  <text x="125" y="305" font-family="Arial" font-size="9" fill="#888" text-anchor="middle">[Eutheria]</text>
  
  <rect x="10" y="315" width="230" height="25" fill="#0a0a15" stroke="#444" rx="5"/>
  <text x="20" y="330" font-family="Arial" font-size="7" fill="#555">◀ Hard req  ◁ Soft req (cost-1)</text>
  <text x="230" y="330" font-family="Arial" font-size="7" fill="#555" text-anchor="end">▶ Enables</text>
</g></svg>