<?xml version="1.0" encoding="UTF-8"?>
<svg xmlns="http://www.w3.org/2000/svg" viewBox="0 0 250 350" width="250" height="350">
  <defs>
    <linearGradient id="cardBg" x1="0%" y1="0%" x2="0%" y2="100%">
      <stop offset="0%" style="stop-color:#1a1a2e"/>
      <stop offset="100%" style="stop-color:#16213e"/>
    </linearGradient>
    <linearGradient id="eraGrad" x1="0%" y1="0%" x2="100%" y2="0%">
      <stop offset="0%" style="stop-color:#4e342e"/>
      <stop offset="100%" style="stop-color:#4e342e"/>
    </linearGradient>
  </defs>
  
  <rect width="250" height="350" fill="url(#cardBg)" rx="15"/>
  <rect x="5" y="5" width="240" height="340" fill="none" stroke="#e94560" stroke-width="2" rx="12"/>
  
  <rect x="10" y="10" width="230" height="35" fill="url(#eraGrad)" rx="8"/>
  <text x="125" y="28" font-family="Arial" font-size="11" fill="#fff" text-anchor="middle" font-weight="bold">ERA WINDOW: 5-11</text>
  <text x="125" y="40" font-family="Arial" font-size="8" fill="#ccc" text-anchor="middle">(Permian to Quaternary)</text>
  
  <rect x="10" y="50" width="230" height="40" fill="#0f3460" rx="5"/>
  <text x="125" y="76" font-family="Georgia" font-size="16" fill="#fff" text-anchor="middle" font-weight="bold">ENDOTHERMY</text>
  
  <rect x="10" y="95" width="110" height="50" fill="#0a0a15" stroke="#3a3a5a" rx="5"/>
  <text x="65" y="112" font-family="Arial" font-size="10" fill="#f1c40f" text-anchor="middle" font-weight="bold">COST</text>
  <text x="65" y="135" font-family="Arial" font-size="24" fill="#f1c40f" text-anchor="middle" font-weight="bold">5</text>
  
  <rect x="130" y="95" width="110" height="50" fill="#0a0a15" stroke="#3a3a5a" rx="5"/>
  <text x="185" y="112" font-family="Arial" font-size="10" fill="#e94560" text-anchor="middle" font-weight="bold">PREREQS</text>
  <text font-family="Arial" font-size="8" text-anchor="middle"><tspan x="185" dy="12" fill="#e94560">Amniotic Egg ━</tspan><tspan x="185" dy="12" fill="#888">Synapsid Skull ┅</tspan><tspan x="185" dy="12" fill="#888">Diapsid Skull ┅</tspan></text>
  
  <rect x="10" y="150" width="230" height="35" fill="#0a0a15" stroke="#3a3a5a" rx="5"/>
  <text x="70" y="170" font-family="Arial" font-size="10" fill="#9b59b6" text-anchor="middle">COMPLEXITY +5</text>
  <text x="185" y="170" font-family="Arial" font-size="8" fill="#3498db" text-anchor="middle">[Cold-Resistant] [Warm-Blooded]</text>
  
  <rect x="10" y="190" width="230" height="70" fill="#0a0a15" stroke="#27ae60" rx="5"/>
  <text x="20" y="206" font-family="Arial" font-size="10" fill="#27ae60" font-weight="bold">GRANTS:</text>
  <text x="20" y="220" font-family="Arial" font-size="8" fill="#ccc">TILES: Occupy Ice, Mountain</text>
  <text x="20" y="232" font-family="Arial" font-size="8" fill="#ccc">SURVIVAL: SAFE during ice ages</text>
  <text x="20" y="244" font-family="Arial" font-size="8" fill="#ccc">ALLELES: -1/era (high food).</text>
  
  <rect x="10" y="265" width="230" height="45" fill="#0a0a15" stroke="#888" rx="5"/>
  <text x="20" y="280" font-family="Arial" font-size="8" fill="#888" font-style="italic">SCIENCE:</text>
  <text x="20" y="292" font-family="Arial" font-size="7" fill="#666">Internal heat production requires 10x more food but ena</text>
  <text x="20" y="302" font-family="Arial" font-size="7" fill="#666">bles constant activity</text>
  
  <rect x="10" y="315" width="230" height="25" fill="#0f3460" rx="5"/>
  <text x="125" y="332" font-family="Arial" font-size="10" fill="#888" text-anchor="middle">[Clade: Synapsida/Aves]</text>
</svg>