<?xml version="1.0" encoding="UTF-8"?>
<svg xmlns="http://www.w3.org/2000/svg" viewBox="0 0 250 350" width="250" height="350">
  <rect width="250" height="350" fill="#1a0a0a" rx="15"/>
  <rect x="5" y="5" width="240" height="340" fill="none" stroke="#c0392b" stroke-width="3" rx="12"/>
  
  <rect x="10" y="10" width="230" height="30" fill="#c0392b" rx="8"/>
  <text x="125" y="30" font-family="Arial" font-size="12" fill="#fff" text-anchor="middle" font-weight="bold">★ EXTINCTION EVENT ★</text>
  
  <rect x="10" y="45" width="230" height="50" fill="#1a0505" stroke="#c0392b" rx="5"/>
  <text x="125" y="75" font-family="Georgia" font-size="14" fill="#fff" text-anchor="middle" font-weight="bold">LATE DEVONIAN CRISIS</text>
  
  <rect x="10" y="100" width="230" height="25" fill="#0a0505" stroke="#555" rx="5"/>
  <text x="125" y="117" font-family="Arial" font-size="10" fill="#888" text-anchor="middle">Era 3</text>
  
  
  <rect x="10" y="130" width="230" height="70" fill="#0a1a0a" stroke="#27ae60" stroke-width="2" rx="5"/>
  <text x="125" y="148" font-family="Arial" font-size="11" fill="#27ae60" text-anchor="middle" font-weight="bold">SAFE (survive automatically)</text>
  <text x="125" y="170" font-family="Arial" font-size="9" fill="#27ae60" text-anchor="middle">[Freshwater] [Terrestrial] [Deep-Sea]</text>
  
  <rect x="10" y="205" width="230" height="60" fill="#1a0a0a" stroke="#c0392b" stroke-width="2" rx="5"/>
  <text x="125" y="223" font-family="Arial" font-size="11" fill="#c0392b" text-anchor="middle" font-weight="bold">DOOMED (lose half population)</text>
  <text x="125" y="245" font-family="Arial" font-size="9" fill="#c0392b" text-anchor="middle">[Reef-Dependent] [Shallow-Marine] [Tropical]</text>
  
  <rect x="10" y="270" width="230" height="35" fill="#1a1a0a" stroke="#f1c40f" rx="5"/>
  <text x="125" y="292" font-family="Arial" font-size="10" fill="#f1c40f" text-anchor="middle" font-weight="bold">NEUTRAL: Roll d6, need 4+</text>
  
  <rect x="10" y="310" width="230" height="30" fill="#0a0505" stroke="#555" rx="5"/>
  <text x="125" y="328" font-family="Arial" font-size="7" fill="#666" text-anchor="middle" font-style="italic">The Late Devonian extinction (~372 MYA) may have been caused</text>
</svg>