<?xml version="1.0" encoding="UTF-8"?>
<svg xmlns="http://www.w3.org/2000/svg" viewBox="0 0 250 350" width="250" height="350">
  <rect width="250" height="350" fill="#1a0a0a" rx="15"/>
  <rect x="5" y="5" width="240" height="340" fill="none" stroke="#27ae60" stroke-width="3" rx="12"/>
  
  <rect x="10" y="10" width="230" height="30" fill="#27ae60" rx="8"/>
  <text x="125" y="30" font-family="Arial" font-size="12" fill="#fff" text-anchor="middle" font-weight="bold">✦ POSITIVE ✦</text>
  
  <rect x="10" y="45" width="230" height="50" fill="#1a0505" stroke="#27ae60" rx="5"/>
  <text x="125" y="75" font-family="Georgia" font-size="14" fill="#fff" text-anchor="middle" font-weight="bold">NUTRIENT UPWELLING</text>
  
  
  <rect x="10" y="100" width="230" height="65" fill="#0a0a15" stroke="#27ae60" rx="5"/>
  <text x="125" y="118" font-family="Arial" font-size="10" fill="#27ae60" text-anchor="middle" font-weight="bold">EFFECT:</text>
  <text x="125" y="136" font-family="Arial" font-size="8" fill="#ccc" text-anchor="middle">Players with [Aquatic] tags gain +3 alleles and </text>
  <text x="125" y="152" font-family="Arial" font-size="7" fill="#888" text-anchor="middle" font-style="italic">The deep ocean gives back. Cold, nutrient-rich currents surg</text>
  
  <rect x="10" y="170" width="230" height="65" fill="#0a0505" stroke="#555" rx="5"/>
  
  <rect x="10" y="185" width="230" height="55" fill="#0a0a1a" stroke="#9b59b6" rx="5"/>
  <text x="125" y="200" font-family="Arial" font-size="9" fill="#9b59b6" text-anchor="middle" font-weight="bold">REAL EXAMPLES:</text>
  <text x="20" y="215" font-family="Arial" font-size="7" fill="#bb88dd">• Humboldt Current (ongoing) - Peru's anchovy f</text>
  <text x="20" y="227" font-family="Arial" font-size="7" fill="#bb88dd">• Monterey Bay (~15 MYA to present) - Upwelling</text>
  
  <rect x="10" y="305" width="230" height="35" fill="#050505" stroke="#444" rx="5"/>
  <text x="20" y="320" font-family="Arial" font-size="6" fill="#555">Upwelling zones cover <1% of ocean area but produce 50%</text>
  <text x="20" y="330" font-family="Arial" font-size="6" fill="#555"> of global fish catch. Nutrient-rich water supports foo</text>
</svg>